#VRML V2.0 utf8
# 3D model generated by easyeda2kicad.py (https://github.com/uPesy/easyeda2kicad.py)

Shape{
    appearance Appearance {
        material  Material 	{
            diffuseColor 0.9490196078431372 0.7607843137254902 0.1803921568627451
            specularColor 0.7607843137254902 0.6078431372549019 0.1450980392156863
            ambientIntensity 0.2
            transparency 0
            shininess 0.5
        }
    }
    geometry IndexedFaceSet {
        ccw TRUE
        solid FALSE
        coord DEF co Coordinate {
            point [
                -0.0236 0.2087 0.0591, -0.0236 0.2087 -0.0197, -0.0236 -0.0591 0.0591, -0.0236 -0.0591 -0.0197, 0.0236 0.2087 0.0591, 0.0236 0.2087 -0.0197, 0.0236 -0.0591 0.0591, 0.0236 -0.0591 -0.0197, -0.0236 -0.0307 0.0615, -0.0236 -0.0214 0.0591, -0.0236 -0.4213 0.0591, -0.0236 -0.0392 0.0651, -0.0236 -0.0643 0.0836, -0.0236 -0.0557 0.0759, -0.0236 -0.0475 0.0699, -0.0236 -0.0991 0.1194, -0.0236 -0.0898 0.1105, -0.0236 -0.0766 0.0963, -0.0236 -0.4213 0.1378, -0.0236 -0.1283 0.1378, -0.0236 -0.1246 0.1364, -0.0236 -0.1162 0.1322, -0.0236 -0.1078 0.1266, 0.0236 -0.4213 0.1378, 0.0236 -0.4213 0.0591, 0.0236 -0.0214 0.0591, 0.0236 -0.0307 0.0615, 0.0236 -0.0392 0.0651, 0.0236 -0.0475 0.0699, 0.0236 -0.0557 0.0759, 0.0236 -0.0643 0.0836, 0.0236 -0.0766 0.0963, 0.0236 -0.0898 0.1105, 0.0236 -0.0991 0.1194, 0.0236 -0.1078 0.1266, 0.0236 -0.1283 0.1378, 0.0236 -0.1246 0.1364, 0.0236 -0.1162 0.1322, 0.0236 -0.1162 0.1322
            ]
        }
        coordIndex [
            0,1,2,-1,2,1,3,-1,4,5,0,-1,0,5,1,-1,6,7,4,-1,4,7,5,-1,2,3,6,-1,6,3,7,-1,5,7,1,-1,1,7,3,-1,6,4,2,-1,2,4,0,-1,8,9,10,-1,8,10,11,-1,12,13,10,-1,10,13,14,-1,10,14,11,-1,15,16,10,-1,10,16,17,-1,10,17,12,-1,18,19,10,-1,10,19,20,-1,20,21,10,-1,10,21,22,-1,10,22,15,-1,23,18,24,-1,24,18,10,-1,25,26,24,-1,24,26,27,-1,24,27,28,-1,28,29,24,-1,24,29,30,-1,24,30,31,-1,31,32,24,-1,24,32,33,-1,24,33,34,-1,35,23,36,-1,36,23,24,-1,36,24,37,-1,37,24,34,-1,18,23,19,-1,19,23,35,-1,25,24,9,-1,9,24,10,-1,25,9,8,-1,25,8,26,-1,26,8,11,-1,26,11,27,-1,27,11,14,-1,27,14,28,-1,28,14,13,-1,28,13,29,-1,29,13,12,-1,29,12,30,-1,30,12,17,-1,30,17,31,-1,31,17,16,-1,31,16,32,-1,32,16,15,-1,32,15,33,-1,33,15,22,-1,33,22,34,-1,34,22,21,-1,34,21,37,-1,37,21,20,-1,37,20,36,-1,36,20,19,-1,36,19,35,-1,
        ]
    }
}
Shape{
    appearance Appearance {
        material  Material 	{
            diffuseColor 0.20784313725490197 0.20784313725490197 0.20784313725490197
            specularColor 0.01568627450980392 0.01568627450980392 0.01568627450980392
            ambientIntensity 0.2
            transparency 0
            shininess 0.5
        }
    }
    geometry IndexedFaceSet {
        ccw TRUE
        solid FALSE
        coord DEF co Coordinate {
            point [
                2.1738 -0.1063 0.1378, -0.4022 -0.1063 0.1378, 2.1738 -0.1063 0.4921, -0.4022 -0.1063 0.4921, -0.4022 -0.1654 0.4921, -0.4022 -0.4213 0.1378, -0.4022 -0.1654 0.5512, -0.4022 -0.4213 0.5512, -0.2447 -0.4213 0.1378, -0.2447 -0.4213 0.5512, -0.2447 -0.3425 0.1378, -0.2447 -0.3425 0.5512, 2.0163 -0.3425 0.1378, 2.0163 -0.3425 0.5512, 2.0163 -0.4213 0.1378, 2.0163 -0.4213 0.5512, 2.1738 -0.4213 0.1378, 2.1738 -0.4213 0.5512, 2.1738 -0.1654 0.5512, 2.1738 -0.1654 0.4921, -0.0321 -0.1654 0.5512, -0.0321 -0.2441 0.5512, 1.8037 -0.2441 0.5512, 1.8037 -0.1654 0.5512, 1.8037 -0.1654 0.4921, 1.8037 -0.2441 0.4921, -0.0321 -0.2441 0.4921, -0.0321 -0.1654 0.4921, -0.0321 -0.1654 0.4921
            ]
        }
        coordIndex [
            0,1,2,-1,2,1,3,-1,3,1,4,-1,4,1,5,-1,4,5,6,-1,6,5,7,-1,8,9,5,-1,5,9,7,-1,10,11,8,-1,8,11,9,-1,12,13,10,-1,10,13,11,-1,14,15,12,-1,12,15,13,-1,16,17,14,-1,14,17,15,-1,18,17,19,-1,19,17,16,-1,19,16,2,-1,2,16,0,-1,7,9,6,-1,6,9,11,-1,15,17,13,-1,13,17,18,-1,20,6,21,-1,21,6,11,-1,21,11,22,-1,22,11,13,-1,22,13,23,-1,23,13,18,-1,8,5,10,-1,10,5,1,-1,10,1,12,-1,12,1,0,-1,12,0,14,-1,14,0,16,-1,24,25,23,-1,23,25,22,-1,25,26,22,-1,22,26,21,-1,26,27,21,-1,21,27,20,-1,27,4,20,-1,20,4,6,-1,19,24,18,-1,18,24,23,-1,24,19,2,-1,3,4,27,-1,26,25,27,-1,27,25,24,-1,27,24,3,-1,3,24,2,-1,
        ]
    }
}
Shape{
    appearance Appearance {
        material  Material 	{
            diffuseColor 0.9490196078431372 0.7607843137254902 0.1803921568627451
            specularColor 0.7607843137254902 0.6078431372549019 0.1450980392156863
            ambientIntensity 0.2
            transparency 0
            shininess 0.5
        }
    }
    geometry IndexedFaceSet {
        ccw TRUE
        solid FALSE
        coord DEF co Coordinate {
            point [
                -0.0236 -0.3425 0.2362, -0.0236 -0.4213 0.2362, -0.0236 -0.3425 0.3543, -0.0236 -0.4213 0.3543, 0.0236 -0.3425 0.2362, 0.0236 -0.3425 0.3543, 0.0236 -0.4213 0.2362, 0.0236 -0.4213 0.3543, -0.0236 -0.4213 0.2933, -0.0236 -0.9331 0.2933, -0.0236 -0.8574 0.2362, -0.0236 -0.87 0.2372, -0.0236 -0.8824 0.2403, -0.0236 -0.894 0.2453, -0.0236 -0.9048 0.2521, -0.0236 -0.9143 0.2605, -0.0236 -0.9223 0.2704, -0.0236 -0.9286 0.2814, 0.0236 -0.8574 0.2362, 0.0236 -0.4213 0.2933, 0.0236 -0.9331 0.2933, 0.0236 -0.9286 0.2814, 0.0236 -0.9223 0.2704, 0.0236 -0.9143 0.2605, 0.0236 -0.9048 0.2521, 0.0236 -0.894 0.2453, 0.0236 -0.87 0.2372, 0.0236 -0.8824 0.2403, -0.0236 -0.8543 0.1378, -0.0236 -0.4213 0.1378, -0.0236 -0.4213 0.0394, -0.0236 -0.9331 0.0394, -0.0236 -0.9331 0.0591, -0.0236 -0.9319 0.0727, -0.0236 -0.9283 0.086, -0.0236 -0.9225 0.0984, -0.0236 -0.9146 0.1097, -0.0236 -0.9049 0.1194, -0.0236 -0.8937 0.1272, -0.0236 -0.8813 0.133, -0.0236 -0.868 0.1366, 0.0236 -0.9331 0.0394, 0.0236 -0.4213 0.0394, 0.0236 -0.4213 0.1378, 0.0236 -0.8543 0.1378, 0.0236 -0.9331 0.0591, 0.0236 -0.9319 0.0727, 0.0236 -0.9146 0.1097, 0.0236 -0.868 0.1366, 0.0236 -0.9225 0.0984, 0.0236 -0.9283 0.086, 0.0236 -0.8813 0.133, 0.0236 -0.8937 0.1272, 0.0236 -0.9049 0.1194, 0.0236 -0.9049 0.1194
            ]
        }
        coordIndex [
            0,1,2,-1,2,1,3,-1,4,0,5,-1,5,0,2,-1,6,4,7,-1,7,4,5,-1,1,6,3,-1,3,6,7,-1,4,6,0,-1,0,6,1,-1,7,5,3,-1,3,5,2,-1,8,1,9,-1,9,1,10,-1,9,10,11,-1,11,12,9,-1,9,12,13,-1,9,13,14,-1,14,15,9,-1,9,15,16,-1,9,16,17,-1,10,1,18,-1,18,1,6,-1,6,19,18,-1,18,19,20,-1,20,21,18,-1,18,21,22,-1,18,22,23,-1,23,24,18,-1,18,24,25,-1,18,25,26,-1,26,25,27,-1,9,20,8,-1,8,20,19,-1,19,6,8,-1,8,6,1,-1,10,18,26,-1,10,26,11,-1,11,26,27,-1,11,27,12,-1,12,27,25,-1,12,25,13,-1,13,25,24,-1,13,24,14,-1,14,24,23,-1,14,23,15,-1,15,23,22,-1,15,22,16,-1,16,22,21,-1,16,21,17,-1,17,21,20,-1,17,20,9,-1,28,29,30,-1,30,31,28,-1,28,31,32,-1,28,32,33,-1,33,34,28,-1,28,34,35,-1,28,35,36,-1,36,37,38,-1,38,39,36,-1,36,39,40,-1,36,40,28,-1,41,31,42,-1,42,31,30,-1,42,43,41,-1,41,43,44,-1,41,44,45,-1,45,44,46,-1,47,44,48,-1,47,49,44,-1,44,49,50,-1,44,50,46,-1,48,51,47,-1,47,51,52,-1,47,52,53,-1,44,43,28,-1,28,43,29,-1,32,31,45,-1,45,31,41,-1,43,42,29,-1,29,42,30,-1,32,45,46,-1,32,46,33,-1,33,46,50,-1,33,50,34,-1,34,50,49,-1,34,49,35,-1,35,49,47,-1,35,47,36,-1,36,47,53,-1,36,53,37,-1,37,53,52,-1,37,52,38,-1,38,52,51,-1,38,51,39,-1,39,51,48,-1,39,48,40,-1,40,48,44,-1,40,44,28,-1,
        ]
    }
}
Shape{
    appearance Appearance {
        material  Material 	{
            diffuseColor 0.9254901960784314 0.8745098039215686 0.8235294117647058
            specularColor 0.2784313725490196 0.2627450980392157 0.24705882352941178
            ambientIntensity 0.2
            transparency 0
            shininess 0.5
        }
    }
    geometry IndexedFaceSet {
        ccw TRUE
        solid FALSE
        coord DEF co Coordinate {
            point [
                -0.0551 0.0906 0.0, -0.0236 0.0591 0.0, -0.4921 0.0906 0.0, -0.0236 -0.0591 0.0, -0.4921 -0.6575 0.0, 0.0236 -0.0591 0.0, 0.1732 -0.0591 0.0, 0.2205 -0.0591 0.0, -0.311 -0.6575 0.0, 0.0236 0.0591 0.0, 0.0551 0.0906 0.0, 0.2205 0.0591 0.0, 0.252 0.0906 0.0, 0.1732 0.0591 0.0, 0.1417 0.0906 0.0, 0.8498 -0.7362 0.0, 0.8165 -0.7362 0.0, 0.4173 -0.0591 0.0, 0.3701 -0.0591 0.0, 0.3701 0.0591 0.0, 0.3386 0.0906 0.0, 0.7994 -0.738 0.0, 0.7856 -0.7429 0.0, 0.7015 -0.7362 0.0, 0.7727 -0.7515 0.0, 0.4173 0.0591 0.0, 0.4488 0.0906 0.0, 0.7726 -0.7516 0.0, 0.7643 -0.7609 0.0, 0.7588 -0.771 0.0, 0.6142 -0.0591 0.0, 0.5669 -0.0591 0.0, 0.5669 0.0591 0.0, 0.5354 0.0906 0.0, 0.7556 -0.7827 0.0, 0.7548 -0.7938 0.0, 0.7461 -0.8543 0.0, 0.6142 0.0591 0.0, 0.6457 0.0906 0.0, 0.8177 -0.8543 0.0, 0.8498 -0.8543 0.0, 0.8613 -0.8551 0.0, 0.811 0.0591 0.0, 0.8425 0.0906 0.0, 0.811 -0.0591 0.0, 0.8613 0.0906 0.0, 0.7638 -0.0591 0.0, 0.7638 0.0591 0.0, 0.7323 0.0906 0.0, 0.6395 -0.8543 0.0, 0.6568 -0.8543 0.0, 0.7564 -0.8096 0.0, 0.7607 -0.822 0.0, 0.7674 -0.8325 0.0, -0.311 -0.8551 0.0, 0.6856 -0.7362 0.0, 0.7771 -0.8418 0.0, 0.7895 -0.849 0.0, 0.8031 -0.8531 0.0, 0.7288 -0.8543 0.0, 0.7176 -0.8212 0.0, 0.6688 -0.8212 0.0, 0.9838 -0.8551 0.0, 0.9886 -0.8557 0.0, 0.8613 -1.0512 0.0, 2.0827 -0.8551 0.0, 2.0827 -1.0512 0.0, 0.9987 -0.8551 0.0, 0.9918 -0.8558 0.0, 1.7953 -0.0591 0.0, 1.7953 0.0591 0.0, 1.8268 0.0906 0.0, 0.8757 -0.7362 0.0, 0.8757 -0.7492 0.0, 0.8729 -0.8414 0.0, 0.8729 -0.8543 0.0, 0.9362 -0.8543 0.0, 0.9593 -0.8482 0.0, 0.9593 -0.8352 0.0, 0.9362 -0.7362 0.0, -0.311 -1.0512 0.0, 0.9719 -0.8534 0.0, 0.9291 0.0906 0.0, 0.9606 0.0591 0.0, 0.9606 -0.0591 0.0, 0.9204 -0.801 0.0, 0.9204 -0.8414 0.0, 0.8786 -0.801 0.0, 0.8786 -0.7881 0.0, 0.9204 -0.7881 0.0, 0.9204 -0.7492 0.0, 1.0079 -0.0591 0.0, 1.0079 0.0591 0.0, 1.0394 0.0906 0.0, 1.1177 -0.7362 0.0, 1.1019 -0.7362 0.0, 1.2047 -0.0591 0.0, 1.1575 -0.0591 0.0, 1.1575 0.0591 0.0, 1.126 0.0906 0.0, 1.3543 -0.0591 0.0, 1.4016 -0.0591 0.0, 2.0827 -0.6575 0.0, 0.9986 -0.749 0.0, 1.0074 -0.7522 0.0, 0.9614 -0.8364 0.0, 1.0156 -0.7577 0.0, 1.0227 -0.7656 0.0, 1.0313 -0.7965 0.0, 1.0301 -0.8093 0.0, 1.0269 -0.8195 0.0, 1.0006 -0.8416 0.0, 0.9896 -0.8428 0.0, 1.0092 -0.8384 0.0, 1.0165 -0.8335 0.0, 1.022 -0.8277 0.0, 0.9739 -0.8411 0.0, 1.2047 0.0591 0.0, 1.2362 0.0906 0.0, 1.0276 -0.7747 0.0, 1.0307 -0.7873 0.0, 1.1177 -0.8543 0.0, 1.0572 -0.8543 0.0, 1.0063 -0.8543 0.0, 1.0178 -0.8503 0.0, 1.3543 0.0591 0.0, 1.3228 0.0906 0.0, 1.5512 -0.0591 0.0, 1.5984 -0.0591 0.0, 2.2638 -0.6575 0.0, 1.4016 0.0591 0.0, 1.4331 0.0906 0.0, 1.0233 -0.746 0.0, 1.034 -0.7563 0.0, 1.0409 -0.7673 0.0, 1.5512 0.0591 0.0, 1.5197 0.0906 0.0, 1.0273 -0.8443 0.0, 1.0362 -0.8349 0.0, 1.0572 -0.8414 0.0, 1.0425 -0.8237 0.0, 1.1019 -0.8414 0.0, 1.5984 0.0591 0.0, 1.6299 0.0906 0.0, 2.2638 0.0906 0.0, 1.748 -0.0591 0.0, 1.748 0.0591 0.0, 1.7165 0.0906 0.0, 1.046 -0.8112 0.0, 1.0471 -0.7975 0.0, 1.0454 -0.7807 0.0, 1.0121 -0.7396 0.0, 0.9989 -0.7357 0.0, 0.9871 -0.7348 0.0, 0.9729 -0.7358 0.0, 0.9593 -0.7395 0.0, 0.9593 -0.7553 0.0, 0.9726 -0.7496 0.0, 0.9869 -0.7477 0.0, 0.1417 0.0906 0.0591, 0.0551 0.0906 0.0591, 0.252 0.0906 0.0591, 0.3386 0.0906 0.0591, 0.4488 0.0906 0.0591, 0.5354 0.0906 0.0591, 0.6457 0.0906 0.0591, 0.7323 0.0906 0.0591, 0.8425 0.0906 0.0591, 0.9291 0.0906 0.0591, 1.0394 0.0906 0.0591, 1.126 0.0906 0.0591, 1.2362 0.0906 0.0591, 1.3228 0.0906 0.0591, 1.4331 0.0906 0.0591, 1.5197 0.0906 0.0591, 1.6299 0.0906 0.0591, 1.7165 0.0906 0.0591, -0.0551 0.0906 0.0591, -0.4331 0.0906 0.0591, -0.4331 0.0906 0.2953, -0.4921 0.0906 0.3543, -0.4134 0.0906 0.2953, -0.4134 0.0906 0.3543, 2.185 0.0906 0.2953, 2.185 0.0906 0.3543, 2.2047 0.0906 0.2953, 2.2638 0.0906 0.3543, 2.2047 0.0906 0.0591, 1.8268 0.0906 0.0591, -0.4921 -0.6575 0.3543, -0.311 -0.6575 0.3543, -0.311 -1.0512 0.3543, 2.063 -1.0512 0.3346, 2.0827 -1.0512 0.3543, -0.2913 -1.0512 0.3346, -0.2913 -1.0512 0.0197, 2.063 -1.0512 0.0197, 2.0827 -0.6575 0.3543, 2.2638 -0.6575 0.3543, 2.185 -0.4213 0.3543, -0.4134 -0.4213 0.3543, -0.4331 -0.5984 0.2953, -0.4331 -0.5984 0.0591, -0.252 -0.5984 0.2953, -0.252 -0.5984 0.0591, -0.252 -0.983 0.0591, -0.252 -0.983 0.2953, 2.0236 -0.983 0.2953, 2.0236 -0.5984 0.2953, 2.0236 -0.983 0.0591, 2.0236 -0.5984 0.0591, 2.2047 -0.5984 0.2953, 2.2047 -0.5984 0.0591, 2.185 -0.4213 0.2953, -0.4134 -0.4213 0.2953, 0.4173 -0.983 0.0591, 0.5669 -0.983 0.0591, 0.4173 -0.4213 0.0591, 0.5669 -0.4213 0.0591, 0.0236 -0.4213 0.0591, 0.0236 -0.983 0.0591, 0.1732 -0.983 0.0591, 0.6142 -0.983 0.0591, 0.7638 -0.983 0.0591, 0.6142 -0.4213 0.0591, 0.7638 -0.4213 0.0591, 0.2205 -0.0591 0.0591, 0.3701 -0.0591 0.0591, 0.3701 -0.0214 0.0591, 0.2205 -0.0214 0.0591, 0.3701 0.0591 0.0591, 0.811 -0.983 0.0591, 0.9606 -0.983 0.0591, 0.811 -0.4213 0.0591, 0.9606 -0.4213 0.0591, 1.0079 -0.4213 0.0591, 1.0079 -0.983 0.0591, 1.1575 -0.983 0.0591, -0.0236 -0.983 0.0591, -0.0236 -0.4213 0.0591, -0.0236 0.0591 0.0591, -0.0236 -0.0214 0.0591, -0.0236 -0.0591 0.0591, 0.0236 -0.0591 0.0591, 0.1732 -0.0591 0.0591, 0.0236 -0.0214 0.0591, 0.1732 -0.0214 0.0591, 0.1732 0.0591 0.0591, 0.2205 0.0591 0.0591, 1.0079 -0.0214 0.0591, 1.1575 -0.0214 0.0591, 1.1575 0.0591 0.0591, 1.1575 -0.0591 0.0591, 1.2047 -0.4213 0.0591, 1.5984 -0.0591 0.0591, 1.5512 -0.0591 0.0591, 0.2205 -0.983 0.0591, 0.3701 -0.983 0.0591, 0.2205 -0.4213 0.0591, 0.3701 -0.4213 0.0591, 0.9606 -0.0591 0.0591, 1.0079 -0.0591 0.0591, 0.0236 0.0591 0.0591, 1.0079 0.0591 0.0591, 0.4173 -0.0591 0.0591, 1.4016 -0.0591 0.0591, 1.3543 -0.0591 0.0591, 1.1575 -0.4213 0.0591, 1.3543 -0.4213 0.0591, 1.4016 -0.4213 0.0591, 1.748 -0.0591 0.0591, 1.7953 -0.0591 0.0591, 0.1732 -0.4213 0.0591, 1.5512 -0.4213 0.0591, 1.5984 -0.4213 0.0591, 0.9606 0.0591 0.0591, 0.811 -0.0214 0.0591, 0.811 0.0591 0.0591, 0.5669 -0.0591 0.0591, 0.5669 -0.0214 0.0591, 0.4173 -0.0214 0.0591, 0.5669 0.0591 0.0591, 0.7638 -0.0591 0.0591, 0.811 -0.0591 0.0591, 0.9606 -0.0214 0.0591, 0.7638 0.0591 0.0591, 0.6142 -0.0214 0.0591, 0.6142 0.0591 0.0591, 1.5512 0.0591 0.0591, 1.4016 0.0591 0.0591, 1.4016 -0.0214 0.0591, 1.5512 -0.0214 0.0591, 1.2047 -0.0591 0.0591, 1.2047 -0.0214 0.0591, 1.3543 -0.0214 0.0591, 1.3543 0.0591 0.0591, 1.7953 0.0591 0.0591, 0.4173 0.0591 0.0591, 1.4016 -0.983 0.0591, 1.5512 -0.983 0.0591, 1.7953 -0.0214 0.0591, 1.7953 -0.4213 0.0591, 1.7953 -0.983 0.0591, 0.6142 -0.0591 0.0591, 0.7638 -0.0214 0.0591, 1.2047 0.0591 0.0591, 1.748 0.0591 0.0591, 1.5984 0.0591 0.0591, 1.748 -0.0214 0.0591, 1.5984 -0.0214 0.0591, 1.3543 -0.983 0.0591, 1.2047 -0.983 0.0591, 1.748 -0.4213 0.0591, 1.748 -0.983 0.0591, 1.5984 -0.983 0.0591, 1.5984 -0.983 0.0591
            ]
        }
        coordIndex [
            0,1,2,-1,2,1,3,-1,2,3,4,-1,4,3,5,-1,6,7,8,-1,5,9,10,-1,7,11,12,-1,8,4,6,-1,6,4,5,-1,6,5,13,-1,13,5,10,-1,13,10,14,-1,7,15,16,-1,17,15,18,-1,18,15,7,-1,18,7,19,-1,19,7,12,-1,19,12,20,-1,21,22,23,-1,23,22,24,-1,17,25,26,-1,24,27,23,-1,23,27,28,-1,23,28,29,-1,30,15,31,-1,31,15,17,-1,31,17,32,-1,32,17,26,-1,32,26,33,-1,29,34,23,-1,23,34,35,-1,23,35,36,-1,30,37,38,-1,39,40,41,-1,41,40,15,-1,42,43,44,-1,44,43,45,-1,45,41,44,-1,44,41,15,-1,44,15,46,-1,46,15,30,-1,46,30,47,-1,47,30,38,-1,47,38,48,-1,49,50,41,-1,35,51,36,-1,36,51,52,-1,36,52,53,-1,41,54,49,-1,49,54,8,-1,49,8,55,-1,55,8,7,-1,55,7,23,-1,23,7,16,-1,23,16,21,-1,53,56,36,-1,36,56,57,-1,36,57,58,-1,58,39,36,-1,36,39,41,-1,36,41,59,-1,59,41,50,-1,59,50,60,-1,60,50,61,-1,62,63,64,-1,65,66,67,-1,67,66,64,-1,67,64,68,-1,68,64,63,-1,69,70,71,-1,72,73,74,-1,41,75,76,-1,77,76,78,-1,78,76,79,-1,80,54,64,-1,64,54,41,-1,64,41,62,-1,62,41,76,-1,62,76,81,-1,81,76,77,-1,82,83,45,-1,45,83,84,-1,85,86,87,-1,87,86,74,-1,87,74,88,-1,88,74,73,-1,88,73,89,-1,89,73,90,-1,91,92,93,-1,94,95,84,-1,96,65,97,-1,97,65,91,-1,97,91,98,-1,98,91,93,-1,98,93,99,-1,100,101,102,-1,103,104,105,-1,105,104,106,-1,105,106,107,-1,108,109,105,-1,105,109,110,-1,111,112,113,-1,113,112,114,-1,110,115,105,-1,105,115,114,-1,105,114,116,-1,116,114,112,-1,75,41,74,-1,74,41,45,-1,74,45,72,-1,72,45,84,-1,72,84,79,-1,96,117,118,-1,107,119,105,-1,105,119,120,-1,105,120,108,-1,84,91,94,-1,94,91,65,-1,94,65,121,-1,121,65,67,-1,121,67,122,-1,122,67,123,-1,122,123,124,-1,102,65,100,-1,100,65,96,-1,100,96,125,-1,125,96,118,-1,125,118,126,-1,127,128,129,-1,101,130,131,-1,132,84,133,-1,133,84,95,-1,133,95,134,-1,129,102,127,-1,127,102,101,-1,127,101,135,-1,135,101,131,-1,135,131,136,-1,124,137,122,-1,122,137,138,-1,122,138,139,-1,139,138,140,-1,139,140,141,-1,128,142,143,-1,71,144,69,-1,69,144,129,-1,69,129,145,-1,145,129,128,-1,145,128,146,-1,146,128,143,-1,146,143,147,-1,140,148,141,-1,141,148,149,-1,141,149,95,-1,95,149,150,-1,95,150,134,-1,132,151,84,-1,84,151,152,-1,84,152,153,-1,153,154,84,-1,84,154,155,-1,84,155,79,-1,79,155,156,-1,79,156,78,-1,78,156,157,-1,78,157,105,-1,105,157,158,-1,105,158,103,-1,14,10,159,-1,159,10,160,-1,161,162,12,-1,12,162,20,-1,163,164,26,-1,26,164,33,-1,165,166,38,-1,38,166,48,-1,167,168,43,-1,43,168,82,-1,169,170,93,-1,93,170,99,-1,171,172,118,-1,118,172,126,-1,173,174,131,-1,131,174,136,-1,175,176,143,-1,143,176,147,-1,177,0,178,-1,178,0,2,-1,178,2,179,-1,179,2,180,-1,179,180,181,-1,181,180,182,-1,183,184,185,-1,185,184,186,-1,185,186,187,-1,187,186,144,-1,187,144,188,-1,188,144,71,-1,189,180,4,-1,4,180,2,-1,190,189,8,-1,8,189,4,-1,191,190,80,-1,80,190,8,-1,192,193,194,-1,194,193,191,-1,194,191,195,-1,195,191,80,-1,195,80,196,-1,196,80,66,-1,196,66,192,-1,192,66,193,-1,197,193,102,-1,102,193,66,-1,198,197,129,-1,129,197,102,-1,186,198,144,-1,144,198,129,-1,190,199,200,-1,182,180,200,-1,200,180,189,-1,200,189,190,-1,186,184,198,-1,198,184,199,-1,198,199,197,-1,197,199,190,-1,197,190,193,-1,193,190,191,-1,179,201,178,-1,178,201,202,-1,201,203,202,-1,202,203,204,-1,205,204,206,-1,206,204,203,-1,207,208,209,-1,209,208,210,-1,208,211,210,-1,210,211,212,-1,211,185,212,-1,212,185,187,-1,208,207,206,-1,213,183,185,-1,179,181,214,-1,213,203,214,-1,214,203,201,-1,214,201,179,-1,206,203,208,-1,208,203,213,-1,208,213,211,-1,211,213,185,-1,210,212,187,-1,215,216,217,-1,217,216,218,-1,219,220,221,-1,222,223,224,-1,224,223,225,-1,224,225,226,-1,227,228,229,-1,229,228,230,-1,231,232,233,-1,233,232,234,-1,235,236,237,-1,205,238,204,-1,204,238,239,-1,240,177,241,-1,241,177,178,-1,241,178,242,-1,242,178,202,-1,243,244,245,-1,245,244,246,-1,245,246,247,-1,230,162,229,-1,229,162,161,-1,229,161,248,-1,249,250,251,-1,250,249,252,-1,253,254,255,-1,256,257,258,-1,258,257,259,-1,260,225,261,-1,261,225,233,-1,247,159,245,-1,245,159,160,-1,245,160,262,-1,251,170,249,-1,249,170,169,-1,249,169,263,-1,229,226,227,-1,227,226,225,-1,227,225,264,-1,265,266,267,-1,268,269,270,-1,270,269,271,-1,221,272,219,-1,219,272,243,-1,219,243,239,-1,239,243,242,-1,239,242,204,-1,204,242,202,-1,273,274,187,-1,272,258,243,-1,243,258,259,-1,243,259,244,-1,244,259,217,-1,244,217,226,-1,226,217,218,-1,226,218,224,-1,275,168,276,-1,276,168,167,-1,276,167,277,-1,278,279,280,-1,280,279,281,-1,282,225,283,-1,283,225,260,-1,283,260,276,-1,276,260,284,-1,276,284,275,-1,285,166,286,-1,286,166,165,-1,286,165,287,-1,174,173,288,-1,288,173,289,-1,288,289,290,-1,267,253,265,-1,265,253,255,-1,265,255,290,-1,290,255,291,-1,290,291,288,-1,292,266,293,-1,293,266,294,-1,293,294,295,-1,237,267,235,-1,235,267,266,-1,235,266,234,-1,234,266,292,-1,234,292,233,-1,233,292,252,-1,233,252,261,-1,261,252,249,-1,187,188,296,-1,281,164,280,-1,280,164,163,-1,280,163,297,-1,298,299,269,-1,269,299,273,-1,269,273,271,-1,271,273,187,-1,271,187,300,-1,300,187,296,-1,301,302,209,-1,280,264,278,-1,278,264,225,-1,278,225,303,-1,303,225,282,-1,303,282,286,-1,286,282,304,-1,286,304,285,-1,295,172,293,-1,293,172,171,-1,293,171,305,-1,176,175,306,-1,306,175,307,-1,306,307,308,-1,308,307,309,-1,308,309,270,-1,270,309,254,-1,270,254,268,-1,268,254,253,-1,268,253,310,-1,310,253,311,-1,209,210,301,-1,301,210,187,-1,301,187,312,-1,312,187,274,-1,312,274,313,-1,313,274,314,-1,182,200,181,-1,181,200,214,-1,199,184,213,-1,213,184,183,-1,200,199,214,-1,214,199,213,-1,
        ]
    }
}
Shape{
    appearance Appearance {
        material  Material 	{
            diffuseColor 0.6392156862745098 0.5764705882352941 0.42745098039215684
            specularColor 0.19215686274509805 0.17254901960784313 0.12941176470588237
            ambientIntensity 0.2
            transparency 0
            shininess 0.5
        }
    }
    geometry IndexedFaceSet {
        ccw TRUE
        solid FALSE
        coord DEF co Coordinate {
            point [
                0.0236 0.0591 0.0591, 0.0236 0.0591 0.0, 0.0236 -0.0214 0.0591, 0.0236 -0.0591 0.0, 0.0236 -0.0591 0.0591, -0.0236 -0.0591 0.0, -0.0236 -0.0591 0.0591, -0.0236 0.0591 0.0, -0.0236 0.0591 0.0591, -0.0236 -0.0214 0.0591, -0.0551 0.0906 0.0, -0.0551 0.0906 0.0591, 0.0551 0.0906 0.0, 0.0551 0.0906 0.0591, 1.7953 0.0591 0.0591, 1.7953 0.0591 0.0, 1.7953 -0.0214 0.0591, 1.7953 -0.0591 0.0, 1.7953 -0.0591 0.0591, 1.748 -0.0591 0.0591, 1.748 -0.0591 0.0, 1.748 0.0591 0.0, 1.748 0.0591 0.0591, 1.748 -0.0214 0.0591, 1.7165 0.0906 0.0591, 1.7165 0.0906 0.0, 1.8268 0.0906 0.0591, 1.8268 0.0906 0.0, 1.5984 0.0591 0.0591, 1.5984 0.0591 0.0, 1.5984 -0.0214 0.0591, 1.5984 -0.0591 0.0, 1.5984 -0.0591 0.0591, 1.5512 -0.0591 0.0591, 1.5512 -0.0591 0.0, 1.5512 0.0591 0.0, 1.5512 0.0591 0.0591, 1.5512 -0.0214 0.0591, 1.5197 0.0906 0.0591, 1.5197 0.0906 0.0, 1.6299 0.0906 0.0591, 1.6299 0.0906 0.0, 1.4016 0.0591 0.0591, 1.4016 0.0591 0.0, 1.4016 -0.0214 0.0591, 1.4016 -0.0591 0.0, 1.4016 -0.0591 0.0591, 1.3543 -0.0591 0.0591, 1.3543 -0.0591 0.0, 1.3543 0.0591 0.0, 1.3543 0.0591 0.0591, 1.3543 -0.0214 0.0591, 1.3228 0.0906 0.0591, 1.3228 0.0906 0.0, 1.4331 0.0906 0.0591, 1.4331 0.0906 0.0, 1.2047 0.0591 0.0591, 1.2047 0.0591 0.0, 1.2047 -0.0214 0.0591, 1.2047 -0.0591 0.0, 1.2047 -0.0591 0.0591, 1.1575 -0.0591 0.0591, 1.1575 -0.0591 0.0, 1.1575 0.0591 0.0, 1.1575 0.0591 0.0591, 1.1575 -0.0214 0.0591, 1.126 0.0906 0.0591, 1.126 0.0906 0.0, 1.2362 0.0906 0.0591, 1.2362 0.0906 0.0, 1.0079 0.0591 0.0591, 1.0079 0.0591 0.0, 1.0079 -0.0214 0.0591, 1.0079 -0.0591 0.0, 1.0079 -0.0591 0.0591, 0.9606 -0.0591 0.0591, 0.9606 -0.0591 0.0, 0.9606 0.0591 0.0, 0.9606 0.0591 0.0591, 0.9606 -0.0214 0.0591, 0.9291 0.0906 0.0591, 0.9291 0.0906 0.0, 1.0394 0.0906 0.0591, 1.0394 0.0906 0.0, 0.811 0.0591 0.0591, 0.811 0.0591 0.0, 0.811 -0.0214 0.0591, 0.811 -0.0591 0.0, 0.811 -0.0591 0.0591, 0.7638 -0.0591 0.0591, 0.7638 -0.0591 0.0, 0.7638 0.0591 0.0, 0.7638 0.0591 0.0591, 0.7638 -0.0214 0.0591, 0.7323 0.0906 0.0591, 0.7323 0.0906 0.0, 0.8425 0.0906 0.0591, 0.8425 0.0906 0.0, 0.6142 0.0591 0.0591, 0.6142 0.0591 0.0, 0.6142 -0.0214 0.0591, 0.6142 -0.0591 0.0, 0.6142 -0.0591 0.0591, 0.5669 -0.0591 0.0591, 0.5669 -0.0591 0.0, 0.5669 0.0591 0.0, 0.5669 0.0591 0.0591, 0.5669 -0.0214 0.0591, 0.5354 0.0906 0.0591, 0.5354 0.0906 0.0, 0.6457 0.0906 0.0591, 0.6457 0.0906 0.0, 0.4173 0.0591 0.0591, 0.4173 0.0591 0.0, 0.4173 -0.0214 0.0591, 0.4173 -0.0591 0.0, 0.4173 -0.0591 0.0591, 0.3701 -0.0591 0.0591, 0.3701 -0.0591 0.0, 0.3701 0.0591 0.0, 0.3701 0.0591 0.0591, 0.3701 -0.0214 0.0591, 0.3386 0.0906 0.0591, 0.3386 0.0906 0.0, 0.4488 0.0906 0.0591, 0.4488 0.0906 0.0, 0.2205 0.0591 0.0591, 0.2205 0.0591 0.0, 0.2205 -0.0214 0.0591, 0.2205 -0.0591 0.0, 0.2205 -0.0591 0.0591, 0.1732 -0.0591 0.0591, 0.1732 -0.0591 0.0, 0.1732 0.0591 0.0, 0.1732 0.0591 0.0591, 0.1732 -0.0214 0.0591, 0.1417 0.0906 0.0591, 0.1417 0.0906 0.0, 0.252 0.0906 0.0591, 0.252 0.0906 0.0, 0.252 0.0906 0.0
            ]
        }
        coordIndex [
            0,1,2,-1,2,1,3,-1,2,3,4,-1,3,5,4,-1,4,5,6,-1,7,8,5,-1,5,8,9,-1,5,9,6,-1,7,10,8,-1,8,10,11,-1,12,1,13,-1,13,1,0,-1,14,15,16,-1,16,15,17,-1,16,17,18,-1,18,17,19,-1,19,17,20,-1,21,22,20,-1,20,22,23,-1,20,23,19,-1,22,21,24,-1,24,21,25,-1,26,27,14,-1,14,27,15,-1,28,29,30,-1,30,29,31,-1,30,31,32,-1,32,31,33,-1,33,31,34,-1,35,36,34,-1,34,36,37,-1,34,37,33,-1,36,35,38,-1,38,35,39,-1,40,41,28,-1,28,41,29,-1,42,43,44,-1,44,43,45,-1,44,45,46,-1,46,45,47,-1,47,45,48,-1,49,50,48,-1,48,50,51,-1,48,51,47,-1,50,49,52,-1,52,49,53,-1,54,55,42,-1,42,55,43,-1,56,57,58,-1,58,57,59,-1,58,59,60,-1,60,59,61,-1,61,59,62,-1,63,64,62,-1,62,64,65,-1,62,65,61,-1,64,63,66,-1,66,63,67,-1,68,69,56,-1,56,69,57,-1,70,71,72,-1,72,71,73,-1,72,73,74,-1,74,73,75,-1,75,73,76,-1,77,78,76,-1,76,78,79,-1,76,79,75,-1,78,77,80,-1,80,77,81,-1,82,83,70,-1,70,83,71,-1,84,85,86,-1,86,85,87,-1,86,87,88,-1,88,87,89,-1,89,87,90,-1,91,92,90,-1,90,92,93,-1,90,93,89,-1,92,91,94,-1,94,91,95,-1,96,97,84,-1,84,97,85,-1,98,99,100,-1,100,99,101,-1,100,101,102,-1,102,101,103,-1,103,101,104,-1,105,106,104,-1,104,106,107,-1,104,107,103,-1,106,105,108,-1,108,105,109,-1,110,111,98,-1,98,111,99,-1,112,113,114,-1,114,113,115,-1,114,115,116,-1,116,115,117,-1,117,115,118,-1,119,120,118,-1,118,120,121,-1,118,121,117,-1,120,119,122,-1,122,119,123,-1,124,125,112,-1,112,125,113,-1,126,127,128,-1,128,127,129,-1,128,129,130,-1,130,129,131,-1,131,129,132,-1,133,134,132,-1,132,134,135,-1,132,135,131,-1,134,133,136,-1,136,133,137,-1,138,139,126,-1,126,139,127,-1,
        ]
    }
}
Shape{
    appearance Appearance {
        material  Material 	{
            diffuseColor 0.9254901960784314 0.8745098039215686 0.8235294117647058
            specularColor 0.2784313725490196 0.2627450980392157 0.24705882352941178
            ambientIntensity 0.2
            transparency 0
            shininess 0.5
        }
    }
    geometry IndexedFaceSet {
        ccw TRUE
        solid FALSE
        coord DEF co Coordinate {
            point [
                2.0236 -0.983 0.2953, 2.063 -1.0512 0.3346, -0.252 -0.983 0.2953, -0.2913 -1.0512 0.3346, 2.0236 -0.983 0.0591, 2.063 -1.0512 0.0197, -0.2913 -1.0512 0.0197, -0.252 -0.983 0.0591, 1.7953 -0.983 0.0591, 1.7953 -1.0171 0.0394, 1.748 -1.0171 0.0394, 1.5512 -1.0171 0.0394, 1.5512 -0.983 0.0591, 1.4016 -0.983 0.0591, 0.2205 -1.0171 0.0394, 0.1732 -1.0171 0.0394, 0.9606 -1.0171 0.0394, 0.9606 -0.983 0.0591, 0.811 -0.983 0.0591, 0.811 -1.0171 0.0394, 0.7638 -1.0171 0.0394, 0.3701 -1.0171 0.0394, 0.3701 -0.983 0.0591, 0.2205 -0.983 0.0591, 1.3543 -0.983 0.0591, 1.2047 -0.983 0.0591, 1.3543 -1.0171 0.0394, 1.2047 -1.0171 0.0394, 0.5669 -1.0171 0.0394, 0.6142 -1.0171 0.0394, 0.6142 -0.983 0.0591, 0.7638 -0.983 0.0591, 0.4173 -1.0171 0.0394, 0.4173 -0.983 0.0591, 0.5669 -0.983 0.0591, -0.0236 -0.983 0.0591, -0.0236 -1.0171 0.0394, 0.0236 -1.0171 0.0394, 0.0236 -0.983 0.0591, 0.1732 -0.983 0.0591, 1.4016 -1.0171 0.0394, 1.1575 -1.0171 0.0394, 1.1575 -0.983 0.0591, 1.0079 -0.983 0.0591, 1.0079 -1.0171 0.0394, 1.748 -0.983 0.0591, 1.5984 -0.983 0.0591, 1.5984 -1.0171 0.0394, -0.0236 -0.4213 0.0394, -0.0236 -0.4213 0.0591, 0.0236 -0.4213 0.0394, 0.0236 -0.4213 0.0591, 1.748 -0.4213 0.0394, 1.748 -0.4213 0.0591, 1.7953 -0.4213 0.0394, 1.7953 -0.4213 0.0591, 1.5512 -0.4213 0.0394, 1.5512 -0.4213 0.0591, 1.5984 -0.4213 0.0394, 1.5984 -0.4213 0.0591, 1.3543 -0.4213 0.0394, 1.3543 -0.4213 0.0591, 1.4016 -0.4213 0.0394, 1.4016 -0.4213 0.0591, 1.1575 -0.4213 0.0394, 1.1575 -0.4213 0.0591, 1.2047 -0.4213 0.0394, 1.2047 -0.4213 0.0591, 0.9606 -0.4213 0.0394, 0.9606 -0.4213 0.0591, 1.0079 -0.4213 0.0394, 1.0079 -0.4213 0.0591, 0.7638 -0.4213 0.0394, 0.7638 -0.4213 0.0591, 0.811 -0.4213 0.0394, 0.811 -0.4213 0.0591, 0.5669 -0.4213 0.0394, 0.5669 -0.4213 0.0591, 0.6142 -0.4213 0.0394, 0.6142 -0.4213 0.0591, 0.3701 -0.4213 0.0394, 0.3701 -0.4213 0.0591, 0.4173 -0.4213 0.0394, 0.4173 -0.4213 0.0591, 0.1732 -0.4213 0.0394, 0.1732 -0.4213 0.0591, 0.2205 -0.4213 0.0394, 0.2205 -0.4213 0.0591, 0.2205 -0.4213 0.0591
            ]
        }
        coordIndex [
            0,1,2,-1,2,1,3,-1,4,5,0,-1,0,5,1,-1,6,7,3,-1,3,7,2,-1,5,4,8,-1,8,9,5,-1,5,9,10,-1,5,10,6,-1,11,12,13,-1,14,15,6,-1,16,17,18,-1,19,20,6,-1,21,22,23,-1,24,25,26,-1,26,25,27,-1,28,6,29,-1,29,6,20,-1,29,20,30,-1,30,20,31,-1,23,14,21,-1,21,14,6,-1,21,6,32,-1,32,6,28,-1,32,28,33,-1,33,28,34,-1,35,7,36,-1,36,7,6,-1,36,6,37,-1,37,6,15,-1,37,15,38,-1,38,15,39,-1,40,26,6,-1,6,26,27,-1,6,27,41,-1,42,43,41,-1,41,43,44,-1,41,44,6,-1,6,44,16,-1,6,16,19,-1,19,16,18,-1,45,46,10,-1,10,46,47,-1,10,47,6,-1,6,47,11,-1,6,11,40,-1,40,11,13,-1,36,48,35,-1,35,48,49,-1,50,37,51,-1,51,37,38,-1,50,48,37,-1,37,48,36,-1,50,51,48,-1,48,51,49,-1,10,52,45,-1,45,52,53,-1,54,9,55,-1,55,9,8,-1,54,52,9,-1,9,52,10,-1,54,55,52,-1,52,55,53,-1,11,56,12,-1,12,56,57,-1,58,47,59,-1,59,47,46,-1,58,56,47,-1,47,56,11,-1,58,59,56,-1,56,59,57,-1,26,60,24,-1,24,60,61,-1,62,40,63,-1,63,40,13,-1,62,60,40,-1,40,60,26,-1,62,63,60,-1,60,63,61,-1,41,64,42,-1,42,64,65,-1,66,27,67,-1,67,27,25,-1,66,64,27,-1,27,64,41,-1,66,67,64,-1,64,67,65,-1,16,68,17,-1,17,68,69,-1,70,44,71,-1,71,44,43,-1,70,68,44,-1,44,68,16,-1,70,71,68,-1,68,71,69,-1,20,72,31,-1,31,72,73,-1,74,19,75,-1,75,19,18,-1,74,72,19,-1,19,72,20,-1,74,75,72,-1,72,75,73,-1,28,76,34,-1,34,76,77,-1,78,29,79,-1,79,29,30,-1,78,76,29,-1,29,76,28,-1,78,79,76,-1,76,79,77,-1,21,80,22,-1,22,80,81,-1,82,32,83,-1,83,32,33,-1,82,80,32,-1,32,80,21,-1,82,83,80,-1,80,83,81,-1,15,84,39,-1,39,84,85,-1,86,14,87,-1,87,14,23,-1,86,84,14,-1,14,84,15,-1,86,87,84,-1,84,87,85,-1,
        ]
    }
}
Shape{
    appearance Appearance {
        material  Material 	{
            diffuseColor 1.0 1.0 1.0
            specularColor 0.8784313725490196 0.8784313725490196 0.8784313725490196
            ambientIntensity 0.2
            transparency 0
            shininess 0.5
        }
    }
    geometry IndexedFaceSet {
        ccw TRUE
        solid FALSE
        coord DEF co Coordinate {
            point [
                0.6856 -0.7362 0.0039, 0.6395 -0.8543 0.0039, 0.6856 -0.7362 0.0, 0.6395 -0.8543 0.0, 0.6568 -0.8543 0.0039, 0.6568 -0.8543 0.0, 0.6688 -0.8212 0.0039, 0.6688 -0.8212 0.0, 0.7176 -0.8212 0.0039, 0.7176 -0.8212 0.0, 0.7288 -0.8543 0.0039, 0.7288 -0.8543 0.0, 0.7461 -0.8543 0.0039, 0.7461 -0.8543 0.0, 0.7015 -0.7362 0.0039, 0.7015 -0.7362 0.0, 0.7136 -0.8082 0.0039, 0.6741 -0.8082 0.0039, 0.6959 -0.7589 0.0039, 0.6948 -0.7548 0.0039, 0.6941 -0.7506 0.0039, 0.6937 -0.7506 0.0039, 0.6929 -0.7548 0.0039, 0.6918 -0.7589 0.0039, 0.7136 -0.8082 0.0, 0.6741 -0.8082 0.0, 0.6959 -0.7589 0.0, 0.6948 -0.7548 0.0, 0.6941 -0.7506 0.0, 0.6937 -0.7506 0.0, 0.6929 -0.7548 0.0, 0.6918 -0.7589 0.0, 0.8177 -0.8543 0.0039, 0.8498 -0.8543 0.0039, 0.8177 -0.8543 0.0, 0.8498 -0.8543 0.0, 0.8498 -0.7362 0.0039, 0.8498 -0.7362 0.0, 0.8165 -0.7362 0.0039, 0.8165 -0.7362 0.0, 0.7548 -0.7938 0.0039, 0.7548 -0.7938 0.0, 0.7556 -0.7827 0.0, 0.7556 -0.7827 0.0039, 0.7588 -0.771 0.0, 0.7588 -0.771 0.0039, 0.7643 -0.7609 0.0, 0.7643 -0.7609 0.0039, 0.7726 -0.7516 0.0, 0.7726 -0.7516 0.0039, 0.7727 -0.7515 0.0, 0.7727 -0.7515 0.0039, 0.7856 -0.7429 0.0, 0.7856 -0.7429 0.0039, 0.7994 -0.738 0.0, 0.7994 -0.738 0.0039, 0.8031 -0.8531 0.0, 0.8031 -0.8531 0.0039, 0.7895 -0.849 0.0, 0.7895 -0.849 0.0039, 0.7771 -0.8418 0.0, 0.7771 -0.8418 0.0039, 0.7674 -0.8325 0.0, 0.7674 -0.8325 0.0039, 0.7607 -0.822 0.0, 0.7607 -0.822 0.0039, 0.7564 -0.8096 0.0, 0.7564 -0.8096 0.0039, 0.7785 -0.7657 0.0039, 0.7842 -0.7597 0.0039, 0.7928 -0.7541 0.0039, 0.8026 -0.7507 0.0039, 0.8166 -0.7492 0.0039, 0.834 -0.7492 0.0039, 0.834 -0.8414 0.0039, 0.8172 -0.8414 0.0039, 0.8047 -0.8402 0.0039, 0.7948 -0.8371 0.0039, 0.7868 -0.8323 0.0039, 0.7801 -0.8258 0.0039, 0.7751 -0.8176 0.0039, 0.7717 -0.8065 0.0039, 0.7706 -0.7941 0.0039, 0.7716 -0.7824 0.0039, 0.7744 -0.773 0.0039, 0.8166 -0.7492 0.0, 0.834 -0.7492 0.0, 0.8026 -0.7507 0.0, 0.7928 -0.7541 0.0, 0.7842 -0.7597 0.0, 0.7785 -0.7657 0.0, 0.7744 -0.773 0.0, 0.7716 -0.7824 0.0, 0.7706 -0.7941 0.0, 0.7717 -0.8065 0.0, 0.7751 -0.8176 0.0, 0.7801 -0.8258 0.0, 0.7868 -0.8323 0.0, 0.7948 -0.8371 0.0, 0.8047 -0.8402 0.0, 0.8172 -0.8414 0.0, 0.834 -0.8414 0.0, 0.8729 -0.8414 0.0039, 0.8729 -0.8543 0.0039, 0.8729 -0.8414 0.0, 0.8729 -0.8543 0.0, 0.9362 -0.8543 0.0039, 0.9362 -0.8543 0.0, 0.9362 -0.7362 0.0039, 0.9362 -0.7362 0.0, 0.8757 -0.7362 0.0039, 0.8757 -0.7362 0.0, 0.8757 -0.7492 0.0039, 0.8757 -0.7492 0.0, 0.9204 -0.7492 0.0039, 0.9204 -0.7492 0.0, 0.9204 -0.7881 0.0039, 0.9204 -0.7881 0.0, 0.8786 -0.7881 0.0039, 0.8786 -0.7881 0.0, 0.8786 -0.801 0.0039, 0.8786 -0.801 0.0, 0.9204 -0.801 0.0039, 0.9204 -0.801 0.0, 0.9204 -0.8414 0.0039, 0.9204 -0.8414 0.0, 0.9593 -0.8352 0.0039, 0.9593 -0.8482 0.0039, 0.9593 -0.8352 0.0, 0.9593 -0.8482 0.0, 0.9719 -0.8534 0.0039, 0.9918 -0.8558 0.0039, 0.9918 -0.8558 0.0, 0.9886 -0.8557 0.0, 0.9886 -0.8557 0.0039, 0.9838 -0.8551 0.0, 0.9719 -0.8534 0.0, 1.0471 -0.7975 0.0039, 1.0471 -0.7975 0.0, 1.046 -0.8112 0.0, 1.046 -0.8112 0.0039, 1.0425 -0.8237 0.0, 1.0425 -0.8237 0.0039, 1.0362 -0.8349 0.0, 1.0362 -0.8349 0.0039, 1.0273 -0.8443 0.0, 1.0273 -0.8443 0.0039, 1.0178 -0.8503 0.0, 1.0178 -0.8503 0.0039, 1.0063 -0.8543 0.0, 1.0063 -0.8543 0.0039, 0.9987 -0.8551 0.0, 0.9871 -0.7348 0.0039, 0.9871 -0.7348 0.0, 0.9989 -0.7357 0.0, 0.9989 -0.7357 0.0039, 1.0121 -0.7396 0.0, 1.0121 -0.7396 0.0039, 1.0233 -0.746 0.0, 1.0233 -0.746 0.0039, 1.034 -0.7563 0.0, 1.034 -0.7563 0.0039, 1.0409 -0.7673 0.0, 1.0409 -0.7673 0.0039, 1.0454 -0.7807 0.0, 1.0454 -0.7807 0.0039, 0.9593 -0.7395 0.0039, 0.9593 -0.7395 0.0, 0.9729 -0.7358 0.0, 0.9729 -0.7358 0.0039, 0.9593 -0.7553 0.0039, 0.9593 -0.7553 0.0, 0.9869 -0.7477 0.0039, 0.9869 -0.7477 0.0, 0.9726 -0.7496 0.0, 0.9726 -0.7496 0.0039, 1.0313 -0.7965 0.0039, 1.0313 -0.7965 0.0, 1.0307 -0.7873 0.0, 1.0307 -0.7873 0.0039, 1.0276 -0.7747 0.0, 1.0276 -0.7747 0.0039, 1.0227 -0.7656 0.0, 1.0227 -0.7656 0.0039, 1.0156 -0.7577 0.0, 1.0156 -0.7577 0.0039, 1.0074 -0.7522 0.0, 1.0074 -0.7522 0.0039, 0.9986 -0.749 0.0, 0.9986 -0.749 0.0039, 0.9896 -0.8428 0.0039, 0.9896 -0.8428 0.0, 1.0006 -0.8416 0.0, 1.0006 -0.8416 0.0039, 1.0092 -0.8384 0.0, 1.0092 -0.8384 0.0039, 1.0165 -0.8335 0.0, 1.0165 -0.8335 0.0039, 1.022 -0.8277 0.0, 1.022 -0.8277 0.0039, 1.0269 -0.8195 0.0, 1.0269 -0.8195 0.0039, 1.0301 -0.8093 0.0, 1.0301 -0.8093 0.0039, 0.9614 -0.8364 0.0, 0.9614 -0.8364 0.0039, 0.9739 -0.8411 0.0, 0.9739 -0.8411 0.0039, 1.0572 -0.8414 0.0039, 1.0572 -0.8543 0.0039, 1.0572 -0.8414 0.0, 1.0572 -0.8543 0.0, 1.1177 -0.8543 0.0039, 1.1177 -0.8543 0.0, 1.1177 -0.7362 0.0039, 1.1177 -0.7362 0.0, 1.1019 -0.7362 0.0039, 1.1019 -0.7362 0.0, 1.1019 -0.8414 0.0039, 1.1019 -0.8414 0.0, 1.1019 -0.8414 0.0
            ]
        }
        coordIndex [
            0,1,2,-1,2,1,3,-1,1,4,3,-1,3,4,5,-1,4,6,5,-1,5,6,7,-1,6,8,7,-1,7,8,9,-1,8,10,9,-1,9,10,11,-1,10,12,11,-1,11,12,13,-1,12,14,13,-1,13,14,15,-1,14,0,15,-1,15,0,2,-1,16,8,17,-1,17,8,6,-1,18,14,16,-1,16,14,12,-1,16,12,8,-1,8,12,10,-1,18,19,14,-1,14,19,20,-1,14,20,0,-1,0,20,21,-1,0,21,22,-1,22,23,0,-1,0,23,17,-1,0,17,1,-1,1,17,6,-1,1,6,4,-1,16,17,24,-1,24,17,25,-1,18,16,26,-1,26,16,24,-1,18,26,27,-1,18,27,19,-1,19,27,28,-1,19,28,20,-1,21,20,29,-1,29,20,28,-1,21,29,30,-1,21,30,22,-1,22,30,31,-1,22,31,23,-1,17,23,25,-1,25,23,31,-1,32,33,34,-1,34,33,35,-1,33,36,35,-1,35,36,37,-1,36,38,37,-1,37,38,39,-1,40,41,42,-1,40,42,43,-1,43,42,44,-1,43,44,45,-1,45,44,46,-1,45,46,47,-1,47,46,48,-1,47,48,49,-1,49,48,50,-1,49,50,51,-1,51,50,52,-1,51,52,53,-1,53,52,54,-1,53,54,55,-1,55,54,39,-1,55,39,38,-1,32,34,56,-1,32,56,57,-1,57,56,58,-1,57,58,59,-1,59,58,60,-1,59,60,61,-1,61,60,62,-1,61,62,63,-1,63,62,64,-1,63,64,65,-1,65,64,66,-1,65,66,67,-1,67,66,41,-1,67,41,40,-1,45,47,68,-1,68,47,49,-1,68,49,69,-1,69,49,51,-1,69,51,70,-1,70,51,53,-1,70,53,71,-1,71,53,55,-1,71,55,72,-1,72,55,38,-1,72,38,73,-1,73,38,36,-1,73,36,74,-1,74,36,33,-1,74,33,75,-1,75,33,32,-1,75,32,76,-1,76,32,57,-1,76,57,77,-1,77,57,59,-1,77,59,78,-1,78,59,61,-1,78,61,79,-1,79,61,63,-1,79,63,80,-1,80,63,65,-1,80,65,81,-1,81,65,67,-1,81,67,82,-1,82,67,40,-1,82,40,83,-1,83,40,43,-1,83,43,84,-1,84,43,45,-1,84,45,68,-1,72,73,85,-1,85,73,86,-1,72,85,87,-1,72,87,71,-1,71,87,88,-1,71,88,70,-1,70,88,89,-1,70,89,69,-1,69,89,90,-1,69,90,68,-1,68,90,91,-1,68,91,84,-1,84,91,92,-1,84,92,83,-1,83,92,93,-1,83,93,82,-1,82,93,94,-1,82,94,81,-1,81,94,95,-1,81,95,80,-1,80,95,96,-1,80,96,79,-1,79,96,97,-1,79,97,78,-1,78,97,98,-1,78,98,77,-1,77,98,99,-1,77,99,76,-1,76,99,100,-1,76,100,75,-1,74,75,101,-1,101,75,100,-1,73,74,86,-1,86,74,101,-1,102,103,104,-1,104,103,105,-1,103,106,105,-1,105,106,107,-1,106,108,107,-1,107,108,109,-1,108,110,109,-1,109,110,111,-1,110,112,111,-1,111,112,113,-1,112,114,113,-1,113,114,115,-1,114,116,115,-1,115,116,117,-1,116,118,117,-1,117,118,119,-1,118,120,119,-1,119,120,121,-1,120,122,121,-1,121,122,123,-1,122,124,123,-1,123,124,125,-1,124,102,125,-1,125,102,104,-1,106,103,102,-1,102,124,106,-1,106,124,122,-1,106,122,108,-1,112,110,114,-1,114,110,108,-1,114,108,116,-1,116,108,122,-1,116,122,118,-1,118,122,120,-1,126,127,128,-1,128,127,129,-1,129,127,130,-1,131,132,133,-1,131,133,134,-1,134,133,135,-1,134,135,130,-1,130,135,136,-1,130,136,129,-1,137,138,139,-1,137,139,140,-1,140,139,141,-1,140,141,142,-1,142,141,143,-1,142,143,144,-1,144,143,145,-1,144,145,146,-1,146,145,147,-1,146,147,148,-1,148,147,149,-1,148,149,150,-1,150,149,131,-1,131,149,151,-1,131,151,132,-1,152,153,154,-1,152,154,155,-1,155,154,156,-1,155,156,157,-1,157,156,158,-1,157,158,159,-1,159,158,160,-1,159,160,161,-1,161,160,162,-1,161,162,163,-1,163,162,164,-1,163,164,165,-1,165,164,138,-1,165,138,137,-1,166,167,168,-1,166,168,169,-1,169,168,153,-1,169,153,152,-1,166,170,167,-1,167,170,171,-1,172,173,174,-1,172,174,175,-1,175,174,171,-1,175,171,170,-1,176,177,178,-1,176,178,179,-1,179,178,180,-1,179,180,181,-1,181,180,182,-1,181,182,183,-1,183,182,184,-1,183,184,185,-1,185,184,186,-1,185,186,187,-1,187,186,188,-1,187,188,189,-1,189,188,173,-1,189,173,172,-1,190,191,192,-1,190,192,193,-1,193,192,194,-1,193,194,195,-1,195,194,196,-1,195,196,197,-1,197,196,198,-1,197,198,199,-1,199,198,200,-1,199,200,201,-1,201,200,202,-1,201,202,203,-1,203,202,177,-1,203,177,176,-1,126,128,204,-1,126,204,205,-1,205,204,206,-1,205,206,207,-1,207,206,191,-1,207,191,190,-1,193,131,190,-1,190,131,134,-1,190,134,207,-1,207,134,130,-1,207,130,205,-1,205,130,127,-1,205,127,126,-1,170,166,175,-1,175,166,169,-1,175,169,172,-1,172,169,152,-1,172,152,189,-1,189,152,155,-1,189,155,187,-1,187,155,157,-1,187,157,185,-1,185,157,159,-1,185,159,183,-1,183,159,161,-1,183,161,181,-1,181,161,163,-1,181,163,179,-1,179,163,165,-1,179,165,176,-1,176,165,137,-1,176,137,203,-1,203,137,140,-1,203,140,201,-1,201,140,142,-1,201,142,199,-1,199,142,144,-1,199,144,197,-1,197,144,146,-1,197,146,195,-1,195,146,148,-1,195,148,193,-1,193,148,150,-1,193,150,131,-1,208,209,210,-1,210,209,211,-1,209,212,211,-1,211,212,213,-1,212,214,213,-1,213,214,215,-1,214,216,215,-1,215,216,217,-1,216,218,217,-1,217,218,219,-1,218,208,219,-1,219,208,210,-1,216,214,218,-1,218,214,212,-1,218,212,208,-1,208,212,209,-1,
        ]
    }
}
Shape{
    appearance Appearance {
        material  Material 	{
            diffuseColor 0.9254901960784314 0.8745098039215686 0.8235294117647058
            specularColor 0.2784313725490196 0.2627450980392157 0.24705882352941178
            ambientIntensity 0.2
            transparency 0
            shininess 0.5
        }
    }
    geometry IndexedFaceSet {
        ccw TRUE
        solid FALSE
        coord DEF co Coordinate {
            point [
                0.7136 -0.8082 0.0, 0.6741 -0.8082 0.0, 0.6959 -0.7589 0.0, 0.6918 -0.7589 0.0, 0.6948 -0.7548 0.0, 0.6929 -0.7548 0.0, 0.6941 -0.7506 0.0, 0.6937 -0.7506 0.0, 0.834 -0.7492 0.0, 0.834 -0.8414 0.0, 0.8166 -0.7492 0.0, 0.8172 -0.8414 0.0, 0.8047 -0.8402 0.0, 0.7706 -0.7941 0.0, 0.7716 -0.7824 0.0, 0.7744 -0.773 0.0, 0.8026 -0.7507 0.0, 0.7948 -0.8371 0.0, 0.7868 -0.8323 0.0, 0.7801 -0.8258 0.0, 0.7751 -0.8176 0.0, 0.7717 -0.8065 0.0, 0.7785 -0.7657 0.0, 0.7842 -0.7597 0.0, 0.7928 -0.7541 0.0, 0.7928 -0.7541 0.0
            ]
        }
        coordIndex [
            0,1,2,-1,2,1,3,-1,2,3,4,-1,4,3,5,-1,4,5,6,-1,6,5,7,-1,8,9,10,-1,10,9,11,-1,10,11,12,-1,13,14,10,-1,10,14,15,-1,10,15,16,-1,12,17,10,-1,10,17,18,-1,10,18,19,-1,19,20,10,-1,10,20,21,-1,10,21,13,-1,22,23,15,-1,15,23,24,-1,15,24,16,-1,
        ]
    }
}
Shape{
    appearance Appearance {
        material  Material 	{
            diffuseColor 0.7686274509803922 0.7686274509803922 0.7686274509803922
            specularColor 0.615686274509804 0.615686274509804 0.615686274509804
            ambientIntensity 0.2
            transparency 0
            shininess 0.5
        }
    }
    geometry IndexedFaceSet {
        ccw TRUE
        solid FALSE
        coord DEF co Coordinate {
            point [
                -0.3406 -1.0512 0.2362, -0.3996 -1.0512 0.2362, -0.3406 -1.0512 0.0591, -0.3996 -1.0512 0.0591, -0.3996 -0.9331 0.0591, -0.3996 -0.6575 0.2362, -0.3996 -0.6575 0.0591, -0.3996 -0.7362 0.0591, -0.3996 -0.7362 -0.0197, -0.3996 -0.9331 -0.0197, -0.3406 -0.6575 0.0591, -0.3406 -0.6575 0.2362, -0.3406 -0.9331 0.0591, -0.3406 -0.7362 0.0591, -0.3406 -0.7362 -0.0197, -0.3406 -0.9331 -0.0197, 2.1713 -1.0512 0.2362, 2.1713 -1.0512 0.0591, 2.1713 -0.6575 0.2362, 2.1713 -0.9331 0.0591, 2.1713 -0.6575 0.0591, 2.1713 -0.7362 0.0591, 2.1713 -0.7362 -0.0197, 2.1713 -0.9331 -0.0197, 2.1122 -1.0512 0.0591, 2.1122 -1.0512 0.2362, 2.1122 -0.9331 0.0591, 2.1122 -0.6575 0.2362, 2.1122 -0.6575 0.0591, 2.1122 -0.7362 0.0591, 2.1122 -0.7362 -0.0197, 2.1122 -0.9331 -0.0197, 2.1122 -0.9331 -0.0197
            ]
        }
        coordIndex [
            0,1,2,-1,2,1,3,-1,4,3,1,-1,5,6,7,-1,8,9,7,-1,7,9,4,-1,7,4,5,-1,5,4,1,-1,6,5,10,-1,10,5,11,-1,0,2,11,-1,11,2,12,-1,10,11,13,-1,13,11,12,-1,13,12,14,-1,14,12,15,-1,9,8,15,-1,15,8,14,-1,0,11,1,-1,1,11,5,-1,7,13,8,-1,8,13,14,-1,10,13,6,-1,6,13,7,-1,12,4,15,-1,15,4,9,-1,12,2,4,-1,4,2,3,-1,16,17,18,-1,18,17,19,-1,20,18,21,-1,21,18,19,-1,21,19,22,-1,22,19,23,-1,17,16,24,-1,24,16,25,-1,26,24,25,-1,27,28,29,-1,30,31,29,-1,29,31,26,-1,29,26,27,-1,27,26,25,-1,28,27,20,-1,20,27,18,-1,30,22,31,-1,31,22,23,-1,27,25,18,-1,18,25,16,-1,29,21,30,-1,30,21,22,-1,20,21,28,-1,28,21,29,-1,19,26,23,-1,23,26,31,-1,24,26,17,-1,17,26,19,-1,
        ]
    }
}
Shape{
    appearance Appearance {
        material  Material 	{
            diffuseColor 0.9490196078431372 0.7607843137254902 0.1803921568627451
            specularColor 0.7607843137254902 0.6078431372549019 0.1450980392156863
            ambientIntensity 0.2
            transparency 0
            shininess 0.5
        }
    }
    geometry IndexedFaceSet {
        ccw TRUE
        solid FALSE
        coord DEF co Coordinate {
            point [
                0.1732 0.2087 0.0591, 0.1732 0.2087 -0.0197, 0.1732 -0.0591 0.0591, 0.1732 -0.0591 -0.0197, 0.2205 0.2087 0.0591, 0.2205 0.2087 -0.0197, 0.2205 -0.0591 0.0591, 0.2205 -0.0591 -0.0197, 0.3701 0.2087 0.0591, 0.3701 0.2087 -0.0197, 0.3701 -0.0591 0.0591, 0.3701 -0.0591 -0.0197, 0.4173 0.2087 0.0591, 0.4173 0.2087 -0.0197, 0.4173 -0.0591 0.0591, 0.4173 -0.0591 -0.0197, 0.5669 0.2087 0.0591, 0.5669 0.2087 -0.0197, 0.5669 -0.0591 0.0591, 0.5669 -0.0591 -0.0197, 0.6142 0.2087 0.0591, 0.6142 0.2087 -0.0197, 0.6142 -0.0591 0.0591, 0.6142 -0.0591 -0.0197, 0.7638 0.2087 0.0591, 0.7638 0.2087 -0.0197, 0.7638 -0.0591 0.0591, 0.7638 -0.0591 -0.0197, 0.811 0.2087 0.0591, 0.811 0.2087 -0.0197, 0.811 -0.0591 0.0591, 0.811 -0.0591 -0.0197, 0.9606 0.2087 0.0591, 0.9606 0.2087 -0.0197, 0.9606 -0.0591 0.0591, 0.9606 -0.0591 -0.0197, 1.0079 0.2087 0.0591, 1.0079 0.2087 -0.0197, 1.0079 -0.0591 0.0591, 1.0079 -0.0591 -0.0197, 1.1575 0.2087 0.0591, 1.1575 0.2087 -0.0197, 1.1575 -0.0591 0.0591, 1.1575 -0.0591 -0.0197, 1.2047 0.2087 0.0591, 1.2047 0.2087 -0.0197, 1.2047 -0.0591 0.0591, 1.2047 -0.0591 -0.0197, 1.3543 0.2087 0.0591, 1.3543 0.2087 -0.0197, 1.3543 -0.0591 0.0591, 1.3543 -0.0591 -0.0197, 1.4016 0.2087 0.0591, 1.4016 0.2087 -0.0197, 1.4016 -0.0591 0.0591, 1.4016 -0.0591 -0.0197, 1.5512 0.2087 0.0591, 1.5512 0.2087 -0.0197, 1.5512 -0.0591 0.0591, 1.5512 -0.0591 -0.0197, 1.5984 0.2087 0.0591, 1.5984 0.2087 -0.0197, 1.5984 -0.0591 0.0591, 1.5984 -0.0591 -0.0197, 1.748 0.2087 0.0591, 1.748 0.2087 -0.0197, 1.748 -0.0591 0.0591, 1.748 -0.0591 -0.0197, 1.7953 0.2087 0.0591, 1.7953 0.2087 -0.0197, 1.7953 -0.0591 0.0591, 1.7953 -0.0591 -0.0197, 0.1732 -0.0307 0.0615, 0.1732 -0.0214 0.0591, 0.1732 -0.4213 0.0591, 0.1732 -0.0392 0.0651, 0.1732 -0.0643 0.0836, 0.1732 -0.0557 0.0759, 0.1732 -0.0475 0.0699, 0.1732 -0.0991 0.1194, 0.1732 -0.0898 0.1105, 0.1732 -0.0766 0.0963, 0.1732 -0.4213 0.1378, 0.1732 -0.1283 0.1378, 0.1732 -0.1246 0.1364, 0.1732 -0.1162 0.1322, 0.1732 -0.1078 0.1266, 0.2205 -0.4213 0.1378, 0.2205 -0.4213 0.0591, 0.2205 -0.0214 0.0591, 0.2205 -0.0307 0.0615, 0.2205 -0.0392 0.0651, 0.2205 -0.0475 0.0699, 0.2205 -0.0557 0.0759, 0.2205 -0.0643 0.0836, 0.2205 -0.0766 0.0963, 0.2205 -0.0898 0.1105, 0.2205 -0.0991 0.1194, 0.2205 -0.1078 0.1266, 0.2205 -0.1283 0.1378, 0.2205 -0.1246 0.1364, 0.2205 -0.1162 0.1322, 0.3701 -0.0307 0.0615, 0.3701 -0.0214 0.0591, 0.3701 -0.4213 0.0591, 0.3701 -0.0392 0.0651, 0.3701 -0.0643 0.0836, 0.3701 -0.0557 0.0759, 0.3701 -0.0475 0.0699, 0.3701 -0.0991 0.1194, 0.3701 -0.0898 0.1105, 0.3701 -0.0766 0.0963, 0.3701 -0.4213 0.1378, 0.3701 -0.1283 0.1378, 0.3701 -0.1246 0.1364, 0.3701 -0.1162 0.1322, 0.3701 -0.1078 0.1266, 0.4173 -0.4213 0.1378, 0.4173 -0.4213 0.0591, 0.4173 -0.0214 0.0591, 0.4173 -0.0307 0.0615, 0.4173 -0.0392 0.0651, 0.4173 -0.0475 0.0699, 0.4173 -0.0557 0.0759, 0.4173 -0.0643 0.0836, 0.4173 -0.0766 0.0963, 0.4173 -0.0898 0.1105, 0.4173 -0.0991 0.1194, 0.4173 -0.1078 0.1266, 0.4173 -0.1283 0.1378, 0.4173 -0.1246 0.1364, 0.4173 -0.1162 0.1322, 0.5669 -0.0307 0.0615, 0.5669 -0.0214 0.0591, 0.5669 -0.4213 0.0591, 0.5669 -0.0392 0.0651, 0.5669 -0.0643 0.0836, 0.5669 -0.0557 0.0759, 0.5669 -0.0475 0.0699, 0.5669 -0.0991 0.1194, 0.5669 -0.0898 0.1105, 0.5669 -0.0766 0.0963, 0.5669 -0.4213 0.1378, 0.5669 -0.1283 0.1378, 0.5669 -0.1246 0.1364, 0.5669 -0.1162 0.1322, 0.5669 -0.1078 0.1266, 0.6142 -0.4213 0.1378, 0.6142 -0.4213 0.0591, 0.6142 -0.0214 0.0591, 0.6142 -0.0307 0.0615, 0.6142 -0.0392 0.0651, 0.6142 -0.0475 0.0699, 0.6142 -0.0557 0.0759, 0.6142 -0.0643 0.0836, 0.6142 -0.0766 0.0963, 0.6142 -0.0898 0.1105, 0.6142 -0.0991 0.1194, 0.6142 -0.1078 0.1266, 0.6142 -0.1283 0.1378, 0.6142 -0.1246 0.1364, 0.6142 -0.1162 0.1322, 0.7638 -0.0307 0.0615, 0.7638 -0.0214 0.0591, 0.7638 -0.4213 0.0591, 0.7638 -0.0392 0.0651, 0.7638 -0.0643 0.0836, 0.7638 -0.0557 0.0759, 0.7638 -0.0475 0.0699, 0.7638 -0.0991 0.1194, 0.7638 -0.0898 0.1105, 0.7638 -0.0766 0.0963, 0.7638 -0.4213 0.1378, 0.7638 -0.1283 0.1378, 0.7638 -0.1246 0.1364, 0.7638 -0.1162 0.1322, 0.7638 -0.1078 0.1266, 0.811 -0.4213 0.1378, 0.811 -0.4213 0.0591, 0.811 -0.0214 0.0591, 0.811 -0.0307 0.0615, 0.811 -0.0392 0.0651, 0.811 -0.0475 0.0699, 0.811 -0.0557 0.0759, 0.811 -0.0643 0.0836, 0.811 -0.0766 0.0963, 0.811 -0.0898 0.1105, 0.811 -0.0991 0.1194, 0.811 -0.1078 0.1266, 0.811 -0.1283 0.1378, 0.811 -0.1246 0.1364, 0.811 -0.1162 0.1322, 0.9606 -0.0307 0.0615, 0.9606 -0.0214 0.0591, 0.9606 -0.4213 0.0591, 0.9606 -0.0392 0.0651, 0.9606 -0.0643 0.0836, 0.9606 -0.0557 0.0759, 0.9606 -0.0475 0.0699, 0.9606 -0.0991 0.1194, 0.9606 -0.0898 0.1105, 0.9606 -0.0766 0.0963, 0.9606 -0.4213 0.1378, 0.9606 -0.1283 0.1378, 0.9606 -0.1246 0.1364, 0.9606 -0.1162 0.1322, 0.9606 -0.1078 0.1266, 1.0079 -0.4213 0.1378, 1.0079 -0.4213 0.0591, 1.0079 -0.0214 0.0591, 1.0079 -0.0307 0.0615, 1.0079 -0.0392 0.0651, 1.0079 -0.0475 0.0699, 1.0079 -0.0557 0.0759, 1.0079 -0.0643 0.0836, 1.0079 -0.0766 0.0963, 1.0079 -0.0898 0.1105, 1.0079 -0.0991 0.1194, 1.0079 -0.1078 0.1266, 1.0079 -0.1283 0.1378, 1.0079 -0.1246 0.1364, 1.0079 -0.1162 0.1322, 1.1575 -0.0307 0.0615, 1.1575 -0.0214 0.0591, 1.1575 -0.4213 0.0591, 1.1575 -0.0392 0.0651, 1.1575 -0.0643 0.0836, 1.1575 -0.0557 0.0759, 1.1575 -0.0475 0.0699, 1.1575 -0.0991 0.1194, 1.1575 -0.0898 0.1105, 1.1575 -0.0766 0.0963, 1.1575 -0.4213 0.1378, 1.1575 -0.1283 0.1378, 1.1575 -0.1246 0.1364, 1.1575 -0.1162 0.1322, 1.1575 -0.1078 0.1266, 1.2047 -0.4213 0.1378, 1.2047 -0.4213 0.0591, 1.2047 -0.0214 0.0591, 1.2047 -0.0307 0.0615, 1.2047 -0.0392 0.0651, 1.2047 -0.0475 0.0699, 1.2047 -0.0557 0.0759, 1.2047 -0.0643 0.0836, 1.2047 -0.0766 0.0963, 1.2047 -0.0898 0.1105, 1.2047 -0.0991 0.1194, 1.2047 -0.1078 0.1266, 1.2047 -0.1283 0.1378, 1.2047 -0.1246 0.1364, 1.2047 -0.1162 0.1322, 1.3543 -0.0307 0.0615, 1.3543 -0.0214 0.0591, 1.3543 -0.4213 0.0591, 1.3543 -0.0392 0.0651, 1.3543 -0.0643 0.0836, 1.3543 -0.0557 0.0759, 1.3543 -0.0475 0.0699, 1.3543 -0.0991 0.1194, 1.3543 -0.0898 0.1105, 1.3543 -0.0766 0.0963, 1.3543 -0.4213 0.1378, 1.3543 -0.1283 0.1378, 1.3543 -0.1246 0.1364, 1.3543 -0.1162 0.1322, 1.3543 -0.1078 0.1266, 1.4016 -0.4213 0.1378, 1.4016 -0.4213 0.0591, 1.4016 -0.0214 0.0591, 1.4016 -0.0307 0.0615, 1.4016 -0.0392 0.0651, 1.4016 -0.0475 0.0699, 1.4016 -0.0557 0.0759, 1.4016 -0.0643 0.0836, 1.4016 -0.0766 0.0963, 1.4016 -0.0898 0.1105, 1.4016 -0.0991 0.1194, 1.4016 -0.1078 0.1266, 1.4016 -0.1283 0.1378, 1.4016 -0.1246 0.1364, 1.4016 -0.1162 0.1322, 1.5512 -0.0307 0.0615, 1.5512 -0.0214 0.0591, 1.5512 -0.4213 0.0591, 1.5512 -0.0392 0.0651, 1.5512 -0.0643 0.0836, 1.5512 -0.0557 0.0759, 1.5512 -0.0475 0.0699, 1.5512 -0.0991 0.1194, 1.5512 -0.0898 0.1105, 1.5512 -0.0766 0.0963, 1.5512 -0.4213 0.1378, 1.5512 -0.1283 0.1378, 1.5512 -0.1246 0.1364, 1.5512 -0.1162 0.1322, 1.5512 -0.1078 0.1266, 1.5984 -0.4213 0.1378, 1.5984 -0.4213 0.0591, 1.5984 -0.0214 0.0591, 1.5984 -0.0307 0.0615, 1.5984 -0.0392 0.0651, 1.5984 -0.0475 0.0699, 1.5984 -0.0557 0.0759, 1.5984 -0.0643 0.0836, 1.5984 -0.0766 0.0963, 1.5984 -0.0898 0.1105, 1.5984 -0.0991 0.1194, 1.5984 -0.1078 0.1266, 1.5984 -0.1283 0.1378, 1.5984 -0.1246 0.1364, 1.5984 -0.1162 0.1322, 1.748 -0.0307 0.0615, 1.748 -0.0214 0.0591, 1.748 -0.4213 0.0591, 1.748 -0.0392 0.0651, 1.748 -0.0643 0.0836, 1.748 -0.0557 0.0759, 1.748 -0.0475 0.0699, 1.748 -0.0991 0.1194, 1.748 -0.0898 0.1105, 1.748 -0.0766 0.0963, 1.748 -0.4213 0.1378, 1.748 -0.1283 0.1378, 1.748 -0.1246 0.1364, 1.748 -0.1162 0.1322, 1.748 -0.1078 0.1266, 1.7953 -0.4213 0.1378, 1.7953 -0.4213 0.0591, 1.7953 -0.0214 0.0591, 1.7953 -0.0307 0.0615, 1.7953 -0.0392 0.0651, 1.7953 -0.0475 0.0699, 1.7953 -0.0557 0.0759, 1.7953 -0.0643 0.0836, 1.7953 -0.0766 0.0963, 1.7953 -0.0898 0.1105, 1.7953 -0.0991 0.1194, 1.7953 -0.1078 0.1266, 1.7953 -0.1283 0.1378, 1.7953 -0.1246 0.1364, 1.7953 -0.1162 0.1322, 0.1732 -0.3425 0.2362, 0.1732 -0.4213 0.2362, 0.1732 -0.3425 0.3543, 0.1732 -0.4213 0.3543, 0.2205 -0.3425 0.2362, 0.2205 -0.3425 0.3543, 0.2205 -0.4213 0.2362, 0.2205 -0.4213 0.3543, 0.3701 -0.3425 0.2362, 0.3701 -0.4213 0.2362, 0.3701 -0.3425 0.3543, 0.3701 -0.4213 0.3543, 0.4173 -0.3425 0.2362, 0.4173 -0.3425 0.3543, 0.4173 -0.4213 0.2362, 0.4173 -0.4213 0.3543, 0.5669 -0.3425 0.2362, 0.5669 -0.4213 0.2362, 0.5669 -0.3425 0.3543, 0.5669 -0.4213 0.3543, 0.6142 -0.3425 0.2362, 0.6142 -0.3425 0.3543, 0.6142 -0.4213 0.2362, 0.6142 -0.4213 0.3543, 0.7638 -0.3425 0.2362, 0.7638 -0.4213 0.2362, 0.7638 -0.3425 0.3543, 0.7638 -0.4213 0.3543, 0.811 -0.3425 0.2362, 0.811 -0.3425 0.3543, 0.811 -0.4213 0.2362, 0.811 -0.4213 0.3543, 0.9606 -0.3425 0.2362, 0.9606 -0.4213 0.2362, 0.9606 -0.3425 0.3543, 0.9606 -0.4213 0.3543, 1.0079 -0.3425 0.2362, 1.0079 -0.3425 0.3543, 1.0079 -0.4213 0.2362, 1.0079 -0.4213 0.3543, 1.1575 -0.3425 0.2362, 1.1575 -0.4213 0.2362, 1.1575 -0.3425 0.3543, 1.1575 -0.4213 0.3543, 1.2047 -0.3425 0.2362, 1.2047 -0.3425 0.3543, 1.2047 -0.4213 0.2362, 1.2047 -0.4213 0.3543, 1.3543 -0.3425 0.2362, 1.3543 -0.4213 0.2362, 1.3543 -0.3425 0.3543, 1.3543 -0.4213 0.3543, 1.4016 -0.3425 0.2362, 1.4016 -0.3425 0.3543, 1.4016 -0.4213 0.2362, 1.4016 -0.4213 0.3543, 1.5512 -0.3425 0.2362, 1.5512 -0.4213 0.2362, 1.5512 -0.3425 0.3543, 1.5512 -0.4213 0.3543, 1.5984 -0.3425 0.2362, 1.5984 -0.3425 0.3543, 1.5984 -0.4213 0.2362, 1.5984 -0.4213 0.3543, 1.748 -0.3425 0.2362, 1.748 -0.4213 0.2362, 1.748 -0.3425 0.3543, 1.748 -0.4213 0.3543, 1.7953 -0.3425 0.2362, 1.7953 -0.3425 0.3543, 1.7953 -0.4213 0.2362, 1.7953 -0.4213 0.3543, 0.1732 -0.8543 0.1378, 0.1732 -0.4213 0.0394, 0.1732 -0.9331 0.0394, 0.1732 -0.9331 0.0591, 0.1732 -0.9319 0.0727, 0.1732 -0.9283 0.086, 0.1732 -0.9225 0.0984, 0.1732 -0.9146 0.1097, 0.1732 -0.9049 0.1194, 0.1732 -0.8937 0.1272, 0.1732 -0.8813 0.133, 0.1732 -0.868 0.1366, 0.2205 -0.9331 0.0394, 0.2205 -0.4213 0.0394, 0.2205 -0.8543 0.1378, 0.2205 -0.9331 0.0591, 0.2205 -0.9319 0.0727, 0.2205 -0.9146 0.1097, 0.2205 -0.868 0.1366, 0.2205 -0.9225 0.0984, 0.2205 -0.9283 0.086, 0.2205 -0.8813 0.133, 0.2205 -0.8937 0.1272, 0.2205 -0.9049 0.1194, 0.3701 -0.8543 0.1378, 0.3701 -0.4213 0.0394, 0.3701 -0.9331 0.0394, 0.3701 -0.9331 0.0591, 0.3701 -0.9319 0.0727, 0.3701 -0.9283 0.086, 0.3701 -0.9225 0.0984, 0.3701 -0.9146 0.1097, 0.3701 -0.9049 0.1194, 0.3701 -0.8937 0.1272, 0.3701 -0.8813 0.133, 0.3701 -0.868 0.1366, 0.4173 -0.9331 0.0394, 0.4173 -0.4213 0.0394, 0.4173 -0.8543 0.1378, 0.4173 -0.9331 0.0591, 0.4173 -0.9319 0.0727, 0.4173 -0.9146 0.1097, 0.4173 -0.868 0.1366, 0.4173 -0.9225 0.0984, 0.4173 -0.9283 0.086, 0.4173 -0.8813 0.133, 0.4173 -0.8937 0.1272, 0.4173 -0.9049 0.1194, 0.5669 -0.8543 0.1378, 0.5669 -0.4213 0.0394, 0.5669 -0.9331 0.0394, 0.5669 -0.9331 0.0591, 0.5669 -0.9319 0.0727, 0.5669 -0.9283 0.086, 0.5669 -0.9225 0.0984, 0.5669 -0.9146 0.1097, 0.5669 -0.9049 0.1194, 0.5669 -0.8937 0.1272, 0.5669 -0.8813 0.133, 0.5669 -0.868 0.1366, 0.6142 -0.9331 0.0394, 0.6142 -0.4213 0.0394, 0.6142 -0.8543 0.1378, 0.6142 -0.9331 0.0591, 0.6142 -0.9319 0.0727, 0.6142 -0.9146 0.1097, 0.6142 -0.868 0.1366, 0.6142 -0.9225 0.0984, 0.6142 -0.9283 0.086, 0.6142 -0.8813 0.133, 0.6142 -0.8937 0.1272, 0.6142 -0.9049 0.1194, 0.7638 -0.8543 0.1378, 0.7638 -0.4213 0.0394, 0.7638 -0.9331 0.0394, 0.7638 -0.9331 0.0591, 0.7638 -0.9319 0.0727, 0.7638 -0.9283 0.086, 0.7638 -0.9225 0.0984, 0.7638 -0.9146 0.1097, 0.7638 -0.9049 0.1194, 0.7638 -0.8937 0.1272, 0.7638 -0.8813 0.133, 0.7638 -0.868 0.1366, 0.811 -0.9331 0.0394, 0.811 -0.4213 0.0394, 0.811 -0.8543 0.1378, 0.811 -0.9331 0.0591, 0.811 -0.9319 0.0727, 0.811 -0.9146 0.1097, 0.811 -0.868 0.1366, 0.811 -0.9225 0.0984, 0.811 -0.9283 0.086, 0.811 -0.8813 0.133, 0.811 -0.8937 0.1272, 0.811 -0.9049 0.1194, 0.9606 -0.8543 0.1378, 0.9606 -0.4213 0.0394, 0.9606 -0.9331 0.0394, 0.9606 -0.9331 0.0591, 0.9606 -0.9319 0.0727, 0.9606 -0.9283 0.086, 0.9606 -0.9225 0.0984, 0.9606 -0.9146 0.1097, 0.9606 -0.9049 0.1194, 0.9606 -0.8937 0.1272, 0.9606 -0.8813 0.133, 0.9606 -0.868 0.1366, 1.0079 -0.9331 0.0394, 1.0079 -0.4213 0.0394, 1.0079 -0.8543 0.1378, 1.0079 -0.9331 0.0591, 1.0079 -0.9319 0.0727, 1.0079 -0.9146 0.1097, 1.0079 -0.868 0.1366, 1.0079 -0.9225 0.0984, 1.0079 -0.9283 0.086, 1.0079 -0.8813 0.133, 1.0079 -0.8937 0.1272, 1.0079 -0.9049 0.1194, 1.1575 -0.8543 0.1378, 1.1575 -0.4213 0.0394, 1.1575 -0.9331 0.0394, 1.1575 -0.9331 0.0591, 1.1575 -0.9319 0.0727, 1.1575 -0.9283 0.086, 1.1575 -0.9225 0.0984, 1.1575 -0.9146 0.1097, 1.1575 -0.9049 0.1194, 1.1575 -0.8937 0.1272, 1.1575 -0.8813 0.133, 1.1575 -0.868 0.1366, 1.2047 -0.9331 0.0394, 1.2047 -0.4213 0.0394, 1.2047 -0.8543 0.1378, 1.2047 -0.9331 0.0591, 1.2047 -0.9319 0.0727, 1.2047 -0.9146 0.1097, 1.2047 -0.868 0.1366, 1.2047 -0.9225 0.0984, 1.2047 -0.9283 0.086, 1.2047 -0.8813 0.133, 1.2047 -0.8937 0.1272, 1.2047 -0.9049 0.1194, 1.3543 -0.8543 0.1378, 1.3543 -0.4213 0.0394, 1.3543 -0.9331 0.0394, 1.3543 -0.9331 0.0591, 1.3543 -0.9319 0.0727, 1.3543 -0.9283 0.086, 1.3543 -0.9225 0.0984, 1.3543 -0.9146 0.1097, 1.3543 -0.9049 0.1194, 1.3543 -0.8937 0.1272, 1.3543 -0.8813 0.133, 1.3543 -0.868 0.1366, 1.4016 -0.9331 0.0394, 1.4016 -0.4213 0.0394, 1.4016 -0.8543 0.1378, 1.4016 -0.9331 0.0591, 1.4016 -0.9319 0.0727, 1.4016 -0.9146 0.1097, 1.4016 -0.868 0.1366, 1.4016 -0.9225 0.0984, 1.4016 -0.9283 0.086, 1.4016 -0.8813 0.133, 1.4016 -0.8937 0.1272, 1.4016 -0.9049 0.1194, 1.5512 -0.8543 0.1378, 1.5512 -0.4213 0.0394, 1.5512 -0.9331 0.0394, 1.5512 -0.9331 0.0591, 1.5512 -0.9319 0.0727, 1.5512 -0.9283 0.086, 1.5512 -0.9225 0.0984, 1.5512 -0.9146 0.1097, 1.5512 -0.9049 0.1194, 1.5512 -0.8937 0.1272, 1.5512 -0.8813 0.133, 1.5512 -0.868 0.1366, 1.5984 -0.9331 0.0394, 1.5984 -0.4213 0.0394, 1.5984 -0.8543 0.1378, 1.5984 -0.9331 0.0591, 1.5984 -0.9319 0.0727, 1.5984 -0.9146 0.1097, 1.5984 -0.868 0.1366, 1.5984 -0.9225 0.0984, 1.5984 -0.9283 0.086, 1.5984 -0.8813 0.133, 1.5984 -0.8937 0.1272, 1.5984 -0.9049 0.1194, 1.748 -0.8543 0.1378, 1.748 -0.4213 0.0394, 1.748 -0.9331 0.0394, 1.748 -0.9331 0.0591, 1.748 -0.9319 0.0727, 1.748 -0.9283 0.086, 1.748 -0.9225 0.0984, 1.748 -0.9146 0.1097, 1.748 -0.9049 0.1194, 1.748 -0.8937 0.1272, 1.748 -0.8813 0.133, 1.748 -0.868 0.1366, 1.7953 -0.9331 0.0394, 1.7953 -0.4213 0.0394, 1.7953 -0.8543 0.1378, 1.7953 -0.9331 0.0591, 1.7953 -0.9319 0.0727, 1.7953 -0.9146 0.1097, 1.7953 -0.868 0.1366, 1.7953 -0.9225 0.0984, 1.7953 -0.9283 0.086, 1.7953 -0.8813 0.133, 1.7953 -0.8937 0.1272, 1.7953 -0.9049 0.1194, 0.1732 -0.4213 0.2933, 0.1732 -0.9331 0.2933, 0.1732 -0.8574 0.2362, 0.1732 -0.87 0.2372, 0.1732 -0.8824 0.2403, 0.1732 -0.894 0.2453, 0.1732 -0.9048 0.2521, 0.1732 -0.9143 0.2605, 0.1732 -0.9223 0.2704, 0.1732 -0.9286 0.2814, 0.2205 -0.8574 0.2362, 0.2205 -0.4213 0.2933, 0.2205 -0.9331 0.2933, 0.2205 -0.9286 0.2814, 0.2205 -0.9223 0.2704, 0.2205 -0.9143 0.2605, 0.2205 -0.9048 0.2521, 0.2205 -0.894 0.2453, 0.2205 -0.87 0.2372, 0.2205 -0.8824 0.2403, 0.3701 -0.4213 0.2933, 0.3701 -0.9331 0.2933, 0.3701 -0.8574 0.2362, 0.3701 -0.87 0.2372, 0.3701 -0.8824 0.2403, 0.3701 -0.894 0.2453, 0.3701 -0.9048 0.2521, 0.3701 -0.9143 0.2605, 0.3701 -0.9223 0.2704, 0.3701 -0.9286 0.2814, 0.4173 -0.8574 0.2362, 0.4173 -0.4213 0.2933, 0.4173 -0.9331 0.2933, 0.4173 -0.9286 0.2814, 0.4173 -0.9223 0.2704, 0.4173 -0.9143 0.2605, 0.4173 -0.9048 0.2521, 0.4173 -0.894 0.2453, 0.4173 -0.87 0.2372, 0.4173 -0.8824 0.2403, 0.5669 -0.4213 0.2933, 0.5669 -0.9331 0.2933, 0.5669 -0.8574 0.2362, 0.5669 -0.87 0.2372, 0.5669 -0.8824 0.2403, 0.5669 -0.894 0.2453, 0.5669 -0.9048 0.2521, 0.5669 -0.9143 0.2605, 0.5669 -0.9223 0.2704, 0.5669 -0.9286 0.2814, 0.6142 -0.8574 0.2362, 0.6142 -0.4213 0.2933, 0.6142 -0.9331 0.2933, 0.6142 -0.9286 0.2814, 0.6142 -0.9223 0.2704, 0.6142 -0.9143 0.2605, 0.6142 -0.9048 0.2521, 0.6142 -0.894 0.2453, 0.6142 -0.87 0.2372, 0.6142 -0.8824 0.2403, 0.7638 -0.4213 0.2933, 0.7638 -0.9331 0.2933, 0.7638 -0.8574 0.2362, 0.7638 -0.87 0.2372, 0.7638 -0.8824 0.2403, 0.7638 -0.894 0.2453, 0.7638 -0.9048 0.2521, 0.7638 -0.9143 0.2605, 0.7638 -0.9223 0.2704, 0.7638 -0.9286 0.2814, 0.811 -0.8574 0.2362, 0.811 -0.4213 0.2933, 0.811 -0.9331 0.2933, 0.811 -0.9286 0.2814, 0.811 -0.9223 0.2704, 0.811 -0.9143 0.2605, 0.811 -0.9048 0.2521, 0.811 -0.894 0.2453, 0.811 -0.87 0.2372, 0.811 -0.8824 0.2403, 0.9606 -0.4213 0.2933, 0.9606 -0.9331 0.2933, 0.9606 -0.8574 0.2362, 0.9606 -0.87 0.2372, 0.9606 -0.8824 0.2403, 0.9606 -0.894 0.2453, 0.9606 -0.9048 0.2521, 0.9606 -0.9143 0.2605, 0.9606 -0.9223 0.2704, 0.9606 -0.9286 0.2814, 1.0079 -0.8574 0.2362, 1.0079 -0.4213 0.2933, 1.0079 -0.9331 0.2933, 1.0079 -0.9286 0.2814, 1.0079 -0.9223 0.2704, 1.0079 -0.9143 0.2605, 1.0079 -0.9048 0.2521, 1.0079 -0.894 0.2453, 1.0079 -0.87 0.2372, 1.0079 -0.8824 0.2403, 1.1575 -0.4213 0.2933, 1.1575 -0.9331 0.2933, 1.1575 -0.8574 0.2362, 1.1575 -0.87 0.2372, 1.1575 -0.8824 0.2403, 1.1575 -0.894 0.2453, 1.1575 -0.9048 0.2521, 1.1575 -0.9143 0.2605, 1.1575 -0.9223 0.2704, 1.1575 -0.9286 0.2814, 1.2047 -0.8574 0.2362, 1.2047 -0.4213 0.2933, 1.2047 -0.9331 0.2933, 1.2047 -0.9286 0.2814, 1.2047 -0.9223 0.2704, 1.2047 -0.9143 0.2605, 1.2047 -0.9048 0.2521, 1.2047 -0.894 0.2453, 1.2047 -0.87 0.2372, 1.2047 -0.8824 0.2403, 1.3543 -0.4213 0.2933, 1.3543 -0.9331 0.2933, 1.3543 -0.8574 0.2362, 1.3543 -0.87 0.2372, 1.3543 -0.8824 0.2403, 1.3543 -0.894 0.2453, 1.3543 -0.9048 0.2521, 1.3543 -0.9143 0.2605, 1.3543 -0.9223 0.2704, 1.3543 -0.9286 0.2814, 1.4016 -0.8574 0.2362, 1.4016 -0.4213 0.2933, 1.4016 -0.9331 0.2933, 1.4016 -0.9286 0.2814, 1.4016 -0.9223 0.2704, 1.4016 -0.9143 0.2605, 1.4016 -0.9048 0.2521, 1.4016 -0.894 0.2453, 1.4016 -0.87 0.2372, 1.4016 -0.8824 0.2403, 1.5512 -0.4213 0.2933, 1.5512 -0.9331 0.2933, 1.5512 -0.8574 0.2362, 1.5512 -0.87 0.2372, 1.5512 -0.8824 0.2403, 1.5512 -0.894 0.2453, 1.5512 -0.9048 0.2521, 1.5512 -0.9143 0.2605, 1.5512 -0.9223 0.2704, 1.5512 -0.9286 0.2814, 1.5984 -0.8574 0.2362, 1.5984 -0.4213 0.2933, 1.5984 -0.9331 0.2933, 1.5984 -0.9286 0.2814, 1.5984 -0.9223 0.2704, 1.5984 -0.9143 0.2605, 1.5984 -0.9048 0.2521, 1.5984 -0.894 0.2453, 1.5984 -0.87 0.2372, 1.5984 -0.8824 0.2403, 1.748 -0.4213 0.2933, 1.748 -0.9331 0.2933, 1.748 -0.8574 0.2362, 1.748 -0.87 0.2372, 1.748 -0.8824 0.2403, 1.748 -0.894 0.2453, 1.748 -0.9048 0.2521, 1.748 -0.9143 0.2605, 1.748 -0.9223 0.2704, 1.748 -0.9286 0.2814, 1.7953 -0.8574 0.2362, 1.7953 -0.4213 0.2933, 1.7953 -0.9331 0.2933, 1.7953 -0.9286 0.2814, 1.7953 -0.9223 0.2704, 1.7953 -0.9143 0.2605, 1.7953 -0.9048 0.2521, 1.7953 -0.894 0.2453, 1.7953 -0.87 0.2372, 1.7953 -0.8824 0.2403, 1.7953 -0.8824 0.2403
            ]
        }
        coordIndex [
            0,1,2,-1,2,1,3,-1,4,5,0,-1,0,5,1,-1,6,7,4,-1,4,7,5,-1,2,3,6,-1,6,3,7,-1,5,7,1,-1,1,7,3,-1,2,6,0,-1,0,6,4,-1,8,9,10,-1,10,9,11,-1,12,13,8,-1,8,13,9,-1,14,15,12,-1,12,15,13,-1,10,11,14,-1,14,11,15,-1,13,15,9,-1,9,15,11,-1,10,14,8,-1,8,14,12,-1,16,17,18,-1,18,17,19,-1,20,21,16,-1,16,21,17,-1,22,23,20,-1,20,23,21,-1,18,19,22,-1,22,19,23,-1,21,23,17,-1,17,23,19,-1,18,22,16,-1,16,22,20,-1,24,25,26,-1,26,25,27,-1,28,29,24,-1,24,29,25,-1,30,31,28,-1,28,31,29,-1,26,27,30,-1,30,27,31,-1,29,31,25,-1,25,31,27,-1,26,30,24,-1,24,30,28,-1,32,33,34,-1,34,33,35,-1,36,37,32,-1,32,37,33,-1,38,39,36,-1,36,39,37,-1,34,35,38,-1,38,35,39,-1,37,39,33,-1,33,39,35,-1,34,38,32,-1,32,38,36,-1,40,41,42,-1,42,41,43,-1,44,45,40,-1,40,45,41,-1,46,47,44,-1,44,47,45,-1,42,43,46,-1,46,43,47,-1,45,47,41,-1,41,47,43,-1,42,46,40,-1,40,46,44,-1,48,49,50,-1,50,49,51,-1,52,53,48,-1,48,53,49,-1,54,55,52,-1,52,55,53,-1,50,51,54,-1,54,51,55,-1,53,55,49,-1,49,55,51,-1,50,54,48,-1,48,54,52,-1,56,57,58,-1,58,57,59,-1,60,61,56,-1,56,61,57,-1,62,63,60,-1,60,63,61,-1,58,59,62,-1,62,59,63,-1,61,63,57,-1,57,63,59,-1,58,62,56,-1,56,62,60,-1,64,65,66,-1,66,65,67,-1,68,69,64,-1,64,69,65,-1,70,71,68,-1,68,71,69,-1,66,67,70,-1,70,67,71,-1,69,71,65,-1,65,71,67,-1,66,70,64,-1,64,70,68,-1,72,73,74,-1,72,74,75,-1,76,77,74,-1,74,77,78,-1,74,78,75,-1,79,80,74,-1,74,80,81,-1,74,81,76,-1,82,83,74,-1,74,83,84,-1,84,85,74,-1,74,85,86,-1,74,86,79,-1,87,82,88,-1,88,82,74,-1,89,90,88,-1,88,90,91,-1,88,91,92,-1,92,93,88,-1,88,93,94,-1,88,94,95,-1,95,96,88,-1,88,96,97,-1,88,97,98,-1,99,87,100,-1,100,87,88,-1,100,88,101,-1,101,88,98,-1,82,87,83,-1,83,87,99,-1,89,88,73,-1,73,88,74,-1,89,73,72,-1,89,72,90,-1,90,72,75,-1,90,75,91,-1,91,75,78,-1,91,78,92,-1,92,78,77,-1,92,77,93,-1,93,77,76,-1,93,76,94,-1,94,76,81,-1,94,81,95,-1,95,81,80,-1,95,80,96,-1,96,80,79,-1,96,79,97,-1,97,79,86,-1,97,86,98,-1,98,86,85,-1,98,85,101,-1,101,85,84,-1,101,84,100,-1,100,84,83,-1,100,83,99,-1,102,103,104,-1,102,104,105,-1,106,107,104,-1,104,107,108,-1,104,108,105,-1,109,110,104,-1,104,110,111,-1,104,111,106,-1,112,113,104,-1,104,113,114,-1,114,115,104,-1,104,115,116,-1,104,116,109,-1,117,112,118,-1,118,112,104,-1,119,120,118,-1,118,120,121,-1,118,121,122,-1,122,123,118,-1,118,123,124,-1,118,124,125,-1,125,126,118,-1,118,126,127,-1,118,127,128,-1,129,117,130,-1,130,117,118,-1,130,118,131,-1,131,118,128,-1,112,117,113,-1,113,117,129,-1,119,118,103,-1,103,118,104,-1,119,103,102,-1,119,102,120,-1,120,102,105,-1,120,105,121,-1,121,105,108,-1,121,108,122,-1,122,108,107,-1,122,107,123,-1,123,107,106,-1,123,106,124,-1,124,106,111,-1,124,111,125,-1,125,111,110,-1,125,110,126,-1,126,110,109,-1,126,109,127,-1,127,109,116,-1,127,116,128,-1,128,116,115,-1,128,115,131,-1,131,115,114,-1,131,114,130,-1,130,114,113,-1,130,113,129,-1,132,133,134,-1,132,134,135,-1,136,137,134,-1,134,137,138,-1,134,138,135,-1,139,140,134,-1,134,140,141,-1,134,141,136,-1,142,143,134,-1,134,143,144,-1,144,145,134,-1,134,145,146,-1,134,146,139,-1,147,142,148,-1,148,142,134,-1,149,150,148,-1,148,150,151,-1,148,151,152,-1,152,153,148,-1,148,153,154,-1,148,154,155,-1,155,156,148,-1,148,156,157,-1,148,157,158,-1,159,147,160,-1,160,147,148,-1,160,148,161,-1,161,148,158,-1,142,147,143,-1,143,147,159,-1,149,148,133,-1,133,148,134,-1,149,133,132,-1,149,132,150,-1,150,132,135,-1,150,135,151,-1,151,135,138,-1,151,138,152,-1,152,138,137,-1,152,137,153,-1,153,137,136,-1,153,136,154,-1,154,136,141,-1,154,141,155,-1,155,141,140,-1,155,140,156,-1,156,140,139,-1,156,139,157,-1,157,139,146,-1,157,146,158,-1,158,146,145,-1,158,145,161,-1,161,145,144,-1,161,144,160,-1,160,144,143,-1,160,143,159,-1,162,163,164,-1,162,164,165,-1,166,167,164,-1,164,167,168,-1,164,168,165,-1,169,170,164,-1,164,170,171,-1,164,171,166,-1,172,173,164,-1,164,173,174,-1,174,175,164,-1,164,175,176,-1,164,176,169,-1,177,172,178,-1,178,172,164,-1,179,180,178,-1,178,180,181,-1,178,181,182,-1,182,183,178,-1,178,183,184,-1,178,184,185,-1,185,186,178,-1,178,186,187,-1,178,187,188,-1,189,177,190,-1,190,177,178,-1,190,178,191,-1,191,178,188,-1,172,177,173,-1,173,177,189,-1,179,178,163,-1,163,178,164,-1,179,163,162,-1,179,162,180,-1,180,162,165,-1,180,165,181,-1,181,165,168,-1,181,168,182,-1,182,168,167,-1,182,167,183,-1,183,167,166,-1,183,166,184,-1,184,166,171,-1,184,171,185,-1,185,171,170,-1,185,170,186,-1,186,170,169,-1,186,169,187,-1,187,169,176,-1,187,176,188,-1,188,176,175,-1,188,175,191,-1,191,175,174,-1,191,174,190,-1,190,174,173,-1,190,173,189,-1,192,193,194,-1,192,194,195,-1,196,197,194,-1,194,197,198,-1,194,198,195,-1,199,200,194,-1,194,200,201,-1,194,201,196,-1,202,203,194,-1,194,203,204,-1,204,205,194,-1,194,205,206,-1,194,206,199,-1,207,202,208,-1,208,202,194,-1,209,210,208,-1,208,210,211,-1,208,211,212,-1,212,213,208,-1,208,213,214,-1,208,214,215,-1,215,216,208,-1,208,216,217,-1,208,217,218,-1,219,207,220,-1,220,207,208,-1,220,208,221,-1,221,208,218,-1,202,207,203,-1,203,207,219,-1,209,208,193,-1,193,208,194,-1,209,193,192,-1,209,192,210,-1,210,192,195,-1,210,195,211,-1,211,195,198,-1,211,198,212,-1,212,198,197,-1,212,197,213,-1,213,197,196,-1,213,196,214,-1,214,196,201,-1,214,201,215,-1,215,201,200,-1,215,200,216,-1,216,200,199,-1,216,199,217,-1,217,199,206,-1,217,206,218,-1,218,206,205,-1,218,205,221,-1,221,205,204,-1,221,204,220,-1,220,204,203,-1,220,203,219,-1,222,223,224,-1,222,224,225,-1,226,227,224,-1,224,227,228,-1,224,228,225,-1,229,230,224,-1,224,230,231,-1,224,231,226,-1,232,233,224,-1,224,233,234,-1,234,235,224,-1,224,235,236,-1,224,236,229,-1,237,232,238,-1,238,232,224,-1,239,240,238,-1,238,240,241,-1,238,241,242,-1,242,243,238,-1,238,243,244,-1,238,244,245,-1,245,246,238,-1,238,246,247,-1,238,247,248,-1,249,237,250,-1,250,237,238,-1,250,238,251,-1,251,238,248,-1,232,237,233,-1,233,237,249,-1,239,238,223,-1,223,238,224,-1,239,223,222,-1,239,222,240,-1,240,222,225,-1,240,225,241,-1,241,225,228,-1,241,228,242,-1,242,228,227,-1,242,227,243,-1,243,227,226,-1,243,226,244,-1,244,226,231,-1,244,231,245,-1,245,231,230,-1,245,230,246,-1,246,230,229,-1,246,229,247,-1,247,229,236,-1,247,236,248,-1,248,236,235,-1,248,235,251,-1,251,235,234,-1,251,234,250,-1,250,234,233,-1,250,233,249,-1,252,253,254,-1,252,254,255,-1,256,257,254,-1,254,257,258,-1,254,258,255,-1,259,260,254,-1,254,260,261,-1,254,261,256,-1,262,263,254,-1,254,263,264,-1,264,265,254,-1,254,265,266,-1,254,266,259,-1,267,262,268,-1,268,262,254,-1,269,270,268,-1,268,270,271,-1,268,271,272,-1,272,273,268,-1,268,273,274,-1,268,274,275,-1,275,276,268,-1,268,276,277,-1,268,277,278,-1,279,267,280,-1,280,267,268,-1,280,268,281,-1,281,268,278,-1,262,267,263,-1,263,267,279,-1,269,268,253,-1,253,268,254,-1,269,253,252,-1,269,252,270,-1,270,252,255,-1,270,255,271,-1,271,255,258,-1,271,258,272,-1,272,258,257,-1,272,257,273,-1,273,257,256,-1,273,256,274,-1,274,256,261,-1,274,261,275,-1,275,261,260,-1,275,260,276,-1,276,260,259,-1,276,259,277,-1,277,259,266,-1,277,266,278,-1,278,266,265,-1,278,265,281,-1,281,265,264,-1,281,264,280,-1,280,264,263,-1,280,263,279,-1,282,283,284,-1,282,284,285,-1,286,287,284,-1,284,287,288,-1,284,288,285,-1,289,290,284,-1,284,290,291,-1,284,291,286,-1,292,293,284,-1,284,293,294,-1,294,295,284,-1,284,295,296,-1,284,296,289,-1,297,292,298,-1,298,292,284,-1,299,300,298,-1,298,300,301,-1,298,301,302,-1,302,303,298,-1,298,303,304,-1,298,304,305,-1,305,306,298,-1,298,306,307,-1,298,307,308,-1,309,297,310,-1,310,297,298,-1,310,298,311,-1,311,298,308,-1,292,297,293,-1,293,297,309,-1,299,298,283,-1,283,298,284,-1,299,283,282,-1,299,282,300,-1,300,282,285,-1,300,285,301,-1,301,285,288,-1,301,288,302,-1,302,288,287,-1,302,287,303,-1,303,287,286,-1,303,286,304,-1,304,286,291,-1,304,291,305,-1,305,291,290,-1,305,290,306,-1,306,290,289,-1,306,289,307,-1,307,289,296,-1,307,296,308,-1,308,296,295,-1,308,295,311,-1,311,295,294,-1,311,294,310,-1,310,294,293,-1,310,293,309,-1,312,313,314,-1,312,314,315,-1,316,317,314,-1,314,317,318,-1,314,318,315,-1,319,320,314,-1,314,320,321,-1,314,321,316,-1,322,323,314,-1,314,323,324,-1,324,325,314,-1,314,325,326,-1,314,326,319,-1,327,322,328,-1,328,322,314,-1,329,330,328,-1,328,330,331,-1,328,331,332,-1,332,333,328,-1,328,333,334,-1,328,334,335,-1,335,336,328,-1,328,336,337,-1,328,337,338,-1,339,327,340,-1,340,327,328,-1,340,328,341,-1,341,328,338,-1,322,327,323,-1,323,327,339,-1,329,328,313,-1,313,328,314,-1,329,313,312,-1,329,312,330,-1,330,312,315,-1,330,315,331,-1,331,315,318,-1,331,318,332,-1,332,318,317,-1,332,317,333,-1,333,317,316,-1,333,316,334,-1,334,316,321,-1,334,321,335,-1,335,321,320,-1,335,320,336,-1,336,320,319,-1,336,319,337,-1,337,319,326,-1,337,326,338,-1,338,326,325,-1,338,325,341,-1,341,325,324,-1,341,324,340,-1,340,324,323,-1,340,323,339,-1,342,343,344,-1,344,343,345,-1,346,342,347,-1,347,342,344,-1,348,346,349,-1,349,346,347,-1,343,348,345,-1,345,348,349,-1,346,348,342,-1,342,348,343,-1,349,347,345,-1,345,347,344,-1,350,351,352,-1,352,351,353,-1,354,350,355,-1,355,350,352,-1,356,354,357,-1,357,354,355,-1,351,356,353,-1,353,356,357,-1,354,356,350,-1,350,356,351,-1,357,355,353,-1,353,355,352,-1,358,359,360,-1,360,359,361,-1,362,358,363,-1,363,358,360,-1,364,362,365,-1,365,362,363,-1,359,364,361,-1,361,364,365,-1,362,364,358,-1,358,364,359,-1,365,363,361,-1,361,363,360,-1,366,367,368,-1,368,367,369,-1,370,366,371,-1,371,366,368,-1,372,370,373,-1,373,370,371,-1,367,372,369,-1,369,372,373,-1,370,372,366,-1,366,372,367,-1,373,371,369,-1,369,371,368,-1,374,375,376,-1,376,375,377,-1,378,374,379,-1,379,374,376,-1,380,378,381,-1,381,378,379,-1,375,380,377,-1,377,380,381,-1,378,380,374,-1,374,380,375,-1,381,379,377,-1,377,379,376,-1,382,383,384,-1,384,383,385,-1,386,382,387,-1,387,382,384,-1,388,386,389,-1,389,386,387,-1,383,388,385,-1,385,388,389,-1,386,388,382,-1,382,388,383,-1,389,387,385,-1,385,387,384,-1,390,391,392,-1,392,391,393,-1,394,390,395,-1,395,390,392,-1,396,394,397,-1,397,394,395,-1,391,396,393,-1,393,396,397,-1,394,396,390,-1,390,396,391,-1,397,395,393,-1,393,395,392,-1,398,399,400,-1,400,399,401,-1,402,398,403,-1,403,398,400,-1,404,402,405,-1,405,402,403,-1,399,404,401,-1,401,404,405,-1,402,404,398,-1,398,404,399,-1,405,403,401,-1,401,403,400,-1,406,407,408,-1,408,407,409,-1,410,406,411,-1,411,406,408,-1,412,410,413,-1,413,410,411,-1,407,412,409,-1,409,412,413,-1,410,412,406,-1,406,412,407,-1,413,411,409,-1,409,411,408,-1,414,82,415,-1,415,416,414,-1,414,416,417,-1,414,417,418,-1,418,419,414,-1,414,419,420,-1,414,420,421,-1,421,422,423,-1,423,424,421,-1,421,424,425,-1,421,425,414,-1,426,416,427,-1,427,416,415,-1,427,87,426,-1,426,87,428,-1,426,428,429,-1,429,428,430,-1,431,428,432,-1,431,433,428,-1,428,433,434,-1,428,434,430,-1,432,435,431,-1,431,435,436,-1,431,436,437,-1,428,87,414,-1,414,87,82,-1,417,416,429,-1,429,416,426,-1,87,427,82,-1,82,427,415,-1,417,429,430,-1,417,430,418,-1,418,430,434,-1,418,434,419,-1,419,434,433,-1,419,433,420,-1,420,433,431,-1,420,431,421,-1,421,431,437,-1,421,437,422,-1,422,437,436,-1,422,436,423,-1,423,436,435,-1,423,435,424,-1,424,435,432,-1,424,432,425,-1,425,432,428,-1,425,428,414,-1,438,112,439,-1,439,440,438,-1,438,440,441,-1,438,441,442,-1,442,443,438,-1,438,443,444,-1,438,444,445,-1,445,446,447,-1,447,448,445,-1,445,448,449,-1,445,449,438,-1,450,440,451,-1,451,440,439,-1,451,117,450,-1,450,117,452,-1,450,452,453,-1,453,452,454,-1,455,452,456,-1,455,457,452,-1,452,457,458,-1,452,458,454,-1,456,459,455,-1,455,459,460,-1,455,460,461,-1,452,117,438,-1,438,117,112,-1,441,440,453,-1,453,440,450,-1,117,451,112,-1,112,451,439,-1,441,453,454,-1,441,454,442,-1,442,454,458,-1,442,458,443,-1,443,458,457,-1,443,457,444,-1,444,457,455,-1,444,455,445,-1,445,455,461,-1,445,461,446,-1,446,461,460,-1,446,460,447,-1,447,460,459,-1,447,459,448,-1,448,459,456,-1,448,456,449,-1,449,456,452,-1,449,452,438,-1,462,142,463,-1,463,464,462,-1,462,464,465,-1,462,465,466,-1,466,467,462,-1,462,467,468,-1,462,468,469,-1,469,470,471,-1,471,472,469,-1,469,472,473,-1,469,473,462,-1,474,464,475,-1,475,464,463,-1,475,147,474,-1,474,147,476,-1,474,476,477,-1,477,476,478,-1,479,476,480,-1,479,481,476,-1,476,481,482,-1,476,482,478,-1,480,483,479,-1,479,483,484,-1,479,484,485,-1,476,147,462,-1,462,147,142,-1,465,464,477,-1,477,464,474,-1,147,475,142,-1,142,475,463,-1,465,477,478,-1,465,478,466,-1,466,478,482,-1,466,482,467,-1,467,482,481,-1,467,481,468,-1,468,481,479,-1,468,479,469,-1,469,479,485,-1,469,485,470,-1,470,485,484,-1,470,484,471,-1,471,484,483,-1,471,483,472,-1,472,483,480,-1,472,480,473,-1,473,480,476,-1,473,476,462,-1,486,172,487,-1,487,488,486,-1,486,488,489,-1,486,489,490,-1,490,491,486,-1,486,491,492,-1,486,492,493,-1,493,494,495,-1,495,496,493,-1,493,496,497,-1,493,497,486,-1,498,488,499,-1,499,488,487,-1,499,177,498,-1,498,177,500,-1,498,500,501,-1,501,500,502,-1,503,500,504,-1,503,505,500,-1,500,505,506,-1,500,506,502,-1,504,507,503,-1,503,507,508,-1,503,508,509,-1,500,177,486,-1,486,177,172,-1,489,488,501,-1,501,488,498,-1,177,499,172,-1,172,499,487,-1,489,501,502,-1,489,502,490,-1,490,502,506,-1,490,506,491,-1,491,506,505,-1,491,505,492,-1,492,505,503,-1,492,503,493,-1,493,503,509,-1,493,509,494,-1,494,509,508,-1,494,508,495,-1,495,508,507,-1,495,507,496,-1,496,507,504,-1,496,504,497,-1,497,504,500,-1,497,500,486,-1,510,202,511,-1,511,512,510,-1,510,512,513,-1,510,513,514,-1,514,515,510,-1,510,515,516,-1,510,516,517,-1,517,518,519,-1,519,520,517,-1,517,520,521,-1,517,521,510,-1,522,512,523,-1,523,512,511,-1,523,207,522,-1,522,207,524,-1,522,524,525,-1,525,524,526,-1,527,524,528,-1,527,529,524,-1,524,529,530,-1,524,530,526,-1,528,531,527,-1,527,531,532,-1,527,532,533,-1,524,207,510,-1,510,207,202,-1,513,512,525,-1,525,512,522,-1,207,523,202,-1,202,523,511,-1,513,525,526,-1,513,526,514,-1,514,526,530,-1,514,530,515,-1,515,530,529,-1,515,529,516,-1,516,529,527,-1,516,527,517,-1,517,527,533,-1,517,533,518,-1,518,533,532,-1,518,532,519,-1,519,532,531,-1,519,531,520,-1,520,531,528,-1,520,528,521,-1,521,528,524,-1,521,524,510,-1,534,232,535,-1,535,536,534,-1,534,536,537,-1,534,537,538,-1,538,539,534,-1,534,539,540,-1,534,540,541,-1,541,542,543,-1,543,544,541,-1,541,544,545,-1,541,545,534,-1,546,536,547,-1,547,536,535,-1,547,237,546,-1,546,237,548,-1,546,548,549,-1,549,548,550,-1,551,548,552,-1,551,553,548,-1,548,553,554,-1,548,554,550,-1,552,555,551,-1,551,555,556,-1,551,556,557,-1,548,237,534,-1,534,237,232,-1,537,536,549,-1,549,536,546,-1,237,547,232,-1,232,547,535,-1,537,549,550,-1,537,550,538,-1,538,550,554,-1,538,554,539,-1,539,554,553,-1,539,553,540,-1,540,553,551,-1,540,551,541,-1,541,551,557,-1,541,557,542,-1,542,557,556,-1,542,556,543,-1,543,556,555,-1,543,555,544,-1,544,555,552,-1,544,552,545,-1,545,552,548,-1,545,548,534,-1,558,262,559,-1,559,560,558,-1,558,560,561,-1,558,561,562,-1,562,563,558,-1,558,563,564,-1,558,564,565,-1,565,566,567,-1,567,568,565,-1,565,568,569,-1,565,569,558,-1,570,560,571,-1,571,560,559,-1,571,267,570,-1,570,267,572,-1,570,572,573,-1,573,572,574,-1,575,572,576,-1,575,577,572,-1,572,577,578,-1,572,578,574,-1,576,579,575,-1,575,579,580,-1,575,580,581,-1,572,267,558,-1,558,267,262,-1,561,560,573,-1,573,560,570,-1,267,571,262,-1,262,571,559,-1,561,573,574,-1,561,574,562,-1,562,574,578,-1,562,578,563,-1,563,578,577,-1,563,577,564,-1,564,577,575,-1,564,575,565,-1,565,575,581,-1,565,581,566,-1,566,581,580,-1,566,580,567,-1,567,580,579,-1,567,579,568,-1,568,579,576,-1,568,576,569,-1,569,576,572,-1,569,572,558,-1,582,292,583,-1,583,584,582,-1,582,584,585,-1,582,585,586,-1,586,587,582,-1,582,587,588,-1,582,588,589,-1,589,590,591,-1,591,592,589,-1,589,592,593,-1,589,593,582,-1,594,584,595,-1,595,584,583,-1,595,297,594,-1,594,297,596,-1,594,596,597,-1,597,596,598,-1,599,596,600,-1,599,601,596,-1,596,601,602,-1,596,602,598,-1,600,603,599,-1,599,603,604,-1,599,604,605,-1,596,297,582,-1,582,297,292,-1,585,584,597,-1,597,584,594,-1,297,595,292,-1,292,595,583,-1,585,597,598,-1,585,598,586,-1,586,598,602,-1,586,602,587,-1,587,602,601,-1,587,601,588,-1,588,601,599,-1,588,599,589,-1,589,599,605,-1,589,605,590,-1,590,605,604,-1,590,604,591,-1,591,604,603,-1,591,603,592,-1,592,603,600,-1,592,600,593,-1,593,600,596,-1,593,596,582,-1,606,322,607,-1,607,608,606,-1,606,608,609,-1,606,609,610,-1,610,611,606,-1,606,611,612,-1,606,612,613,-1,613,614,615,-1,615,616,613,-1,613,616,617,-1,613,617,606,-1,618,608,619,-1,619,608,607,-1,619,327,618,-1,618,327,620,-1,618,620,621,-1,621,620,622,-1,623,620,624,-1,623,625,620,-1,620,625,626,-1,620,626,622,-1,624,627,623,-1,623,627,628,-1,623,628,629,-1,620,327,606,-1,606,327,322,-1,609,608,621,-1,621,608,618,-1,327,619,322,-1,322,619,607,-1,609,621,622,-1,609,622,610,-1,610,622,626,-1,610,626,611,-1,611,626,625,-1,611,625,612,-1,612,625,623,-1,612,623,613,-1,613,623,629,-1,613,629,614,-1,614,629,628,-1,614,628,615,-1,615,628,627,-1,615,627,616,-1,616,627,624,-1,616,624,617,-1,617,624,620,-1,617,620,606,-1,630,343,631,-1,631,343,632,-1,631,632,633,-1,633,634,631,-1,631,634,635,-1,631,635,636,-1,636,637,631,-1,631,637,638,-1,631,638,639,-1,632,343,640,-1,640,343,348,-1,348,641,640,-1,640,641,642,-1,642,643,640,-1,640,643,644,-1,640,644,645,-1,645,646,640,-1,640,646,647,-1,640,647,648,-1,648,647,649,-1,631,642,630,-1,630,642,641,-1,641,348,630,-1,630,348,343,-1,632,640,648,-1,632,648,633,-1,633,648,649,-1,633,649,634,-1,634,649,647,-1,634,647,635,-1,635,647,646,-1,635,646,636,-1,636,646,645,-1,636,645,637,-1,637,645,644,-1,637,644,638,-1,638,644,643,-1,638,643,639,-1,639,643,642,-1,639,642,631,-1,650,351,651,-1,651,351,652,-1,651,652,653,-1,653,654,651,-1,651,654,655,-1,651,655,656,-1,656,657,651,-1,651,657,658,-1,651,658,659,-1,652,351,660,-1,660,351,356,-1,356,661,660,-1,660,661,662,-1,662,663,660,-1,660,663,664,-1,660,664,665,-1,665,666,660,-1,660,666,667,-1,660,667,668,-1,668,667,669,-1,651,662,650,-1,650,662,661,-1,661,356,650,-1,650,356,351,-1,652,660,668,-1,652,668,653,-1,653,668,669,-1,653,669,654,-1,654,669,667,-1,654,667,655,-1,655,667,666,-1,655,666,656,-1,656,666,665,-1,656,665,657,-1,657,665,664,-1,657,664,658,-1,658,664,663,-1,658,663,659,-1,659,663,662,-1,659,662,651,-1,670,359,671,-1,671,359,672,-1,671,672,673,-1,673,674,671,-1,671,674,675,-1,671,675,676,-1,676,677,671,-1,671,677,678,-1,671,678,679,-1,672,359,680,-1,680,359,364,-1,364,681,680,-1,680,681,682,-1,682,683,680,-1,680,683,684,-1,680,684,685,-1,685,686,680,-1,680,686,687,-1,680,687,688,-1,688,687,689,-1,671,682,670,-1,670,682,681,-1,681,364,670,-1,670,364,359,-1,672,680,688,-1,672,688,673,-1,673,688,689,-1,673,689,674,-1,674,689,687,-1,674,687,675,-1,675,687,686,-1,675,686,676,-1,676,686,685,-1,676,685,677,-1,677,685,684,-1,677,684,678,-1,678,684,683,-1,678,683,679,-1,679,683,682,-1,679,682,671,-1,690,367,691,-1,691,367,692,-1,691,692,693,-1,693,694,691,-1,691,694,695,-1,691,695,696,-1,696,697,691,-1,691,697,698,-1,691,698,699,-1,692,367,700,-1,700,367,372,-1,372,701,700,-1,700,701,702,-1,702,703,700,-1,700,703,704,-1,700,704,705,-1,705,706,700,-1,700,706,707,-1,700,707,708,-1,708,707,709,-1,691,702,690,-1,690,702,701,-1,701,372,690,-1,690,372,367,-1,692,700,708,-1,692,708,693,-1,693,708,709,-1,693,709,694,-1,694,709,707,-1,694,707,695,-1,695,707,706,-1,695,706,696,-1,696,706,705,-1,696,705,697,-1,697,705,704,-1,697,704,698,-1,698,704,703,-1,698,703,699,-1,699,703,702,-1,699,702,691,-1,710,375,711,-1,711,375,712,-1,711,712,713,-1,713,714,711,-1,711,714,715,-1,711,715,716,-1,716,717,711,-1,711,717,718,-1,711,718,719,-1,712,375,720,-1,720,375,380,-1,380,721,720,-1,720,721,722,-1,722,723,720,-1,720,723,724,-1,720,724,725,-1,725,726,720,-1,720,726,727,-1,720,727,728,-1,728,727,729,-1,711,722,710,-1,710,722,721,-1,721,380,710,-1,710,380,375,-1,712,720,728,-1,712,728,713,-1,713,728,729,-1,713,729,714,-1,714,729,727,-1,714,727,715,-1,715,727,726,-1,715,726,716,-1,716,726,725,-1,716,725,717,-1,717,725,724,-1,717,724,718,-1,718,724,723,-1,718,723,719,-1,719,723,722,-1,719,722,711,-1,730,383,731,-1,731,383,732,-1,731,732,733,-1,733,734,731,-1,731,734,735,-1,731,735,736,-1,736,737,731,-1,731,737,738,-1,731,738,739,-1,732,383,740,-1,740,383,388,-1,388,741,740,-1,740,741,742,-1,742,743,740,-1,740,743,744,-1,740,744,745,-1,745,746,740,-1,740,746,747,-1,740,747,748,-1,748,747,749,-1,731,742,730,-1,730,742,741,-1,741,388,730,-1,730,388,383,-1,732,740,748,-1,732,748,733,-1,733,748,749,-1,733,749,734,-1,734,749,747,-1,734,747,735,-1,735,747,746,-1,735,746,736,-1,736,746,745,-1,736,745,737,-1,737,745,744,-1,737,744,738,-1,738,744,743,-1,738,743,739,-1,739,743,742,-1,739,742,731,-1,750,391,751,-1,751,391,752,-1,751,752,753,-1,753,754,751,-1,751,754,755,-1,751,755,756,-1,756,757,751,-1,751,757,758,-1,751,758,759,-1,752,391,760,-1,760,391,396,-1,396,761,760,-1,760,761,762,-1,762,763,760,-1,760,763,764,-1,760,764,765,-1,765,766,760,-1,760,766,767,-1,760,767,768,-1,768,767,769,-1,751,762,750,-1,750,762,761,-1,761,396,750,-1,750,396,391,-1,752,760,768,-1,752,768,753,-1,753,768,769,-1,753,769,754,-1,754,769,767,-1,754,767,755,-1,755,767,766,-1,755,766,756,-1,756,766,765,-1,756,765,757,-1,757,765,764,-1,757,764,758,-1,758,764,763,-1,758,763,759,-1,759,763,762,-1,759,762,751,-1,770,399,771,-1,771,399,772,-1,771,772,773,-1,773,774,771,-1,771,774,775,-1,771,775,776,-1,776,777,771,-1,771,777,778,-1,771,778,779,-1,772,399,780,-1,780,399,404,-1,404,781,780,-1,780,781,782,-1,782,783,780,-1,780,783,784,-1,780,784,785,-1,785,786,780,-1,780,786,787,-1,780,787,788,-1,788,787,789,-1,771,782,770,-1,770,782,781,-1,781,404,770,-1,770,404,399,-1,772,780,788,-1,772,788,773,-1,773,788,789,-1,773,789,774,-1,774,789,787,-1,774,787,775,-1,775,787,786,-1,775,786,776,-1,776,786,785,-1,776,785,777,-1,777,785,784,-1,777,784,778,-1,778,784,783,-1,778,783,779,-1,779,783,782,-1,779,782,771,-1,790,407,791,-1,791,407,792,-1,791,792,793,-1,793,794,791,-1,791,794,795,-1,791,795,796,-1,796,797,791,-1,791,797,798,-1,791,798,799,-1,792,407,800,-1,800,407,412,-1,412,801,800,-1,800,801,802,-1,802,803,800,-1,800,803,804,-1,800,804,805,-1,805,806,800,-1,800,806,807,-1,800,807,808,-1,808,807,809,-1,791,802,790,-1,790,802,801,-1,801,412,790,-1,790,412,407,-1,792,800,808,-1,792,808,793,-1,793,808,809,-1,793,809,794,-1,794,809,807,-1,794,807,795,-1,795,807,806,-1,795,806,796,-1,796,806,805,-1,796,805,797,-1,797,805,804,-1,797,804,798,-1,798,804,803,-1,798,803,799,-1,799,803,802,-1,799,802,791,-1,
        ]
    }
}